<svg xmlns="http://www.w3.org/2000/svg" xmlns:xlink="http://www.w3.org/1999/xlink" viewBox="0 0 913.44 895.25"><defs><style>.cls-1{fill:url(#linear-gradient);}.cls-2{fill:url(#linear-gradient-2);}.cls-3{fill:#423434;}.cls-4{fill:url(#åçûìßííûé_ãðàäèåíò_8);}.cls-5{fill:url(#linear-gradient-3);}.cls-6{fill:url(#linear-gradient-4);}.cls-7{fill:url(#linear-gradient-5);}.cls-8{fill:url(#åçûìßííûé_ãðàäèåíò_45);}.cls-9{fill:url(#linear-gradient-6);}.cls-10{fill:url(#linear-gradient-7);}</style><linearGradient id="linear-gradient" x1="569.48" y1="771.54" x2="658.36" y2="771.54" gradientUnits="userSpaceOnUse"><stop offset="0" stop-color="#2e256b"/><stop offset="1" stop-color="#5a3087"/></linearGradient><linearGradient id="linear-gradient-2" x1="358.91" y1="599.46" x2="653.37" y2="599.46" gradientUnits="userSpaceOnUse"><stop offset="0" stop-color="#6a5ebf"/><stop offset="1" stop-color="#6e3aa5"/></linearGradient><linearGradient id="åçûìßííûé_ãðàäèåíò_8" x1="347.93" y1="719.62" x2="603.47" y2="719.62" gradientUnits="userSpaceOnUse"><stop offset="0" stop-color="#ffab2e"/><stop offset="1" stop-color="#ffe200"/></linearGradient><linearGradient id="linear-gradient-3" x1="426.27" y1="736.93" x2="506.44" y2="736.93" gradientUnits="userSpaceOnUse"><stop offset="0" stop-color="#1a163d"/><stop offset="1" stop-color="#422363"/></linearGradient><linearGradient id="linear-gradient-4" x1="0" y1="350.34" x2="880.28" y2="350.34" xlink:href="#linear-gradient-2"/><linearGradient id="linear-gradient-5" x1="62.53" y1="377.74" x2="913.44" y2="377.74" xlink:href="#linear-gradient"/><linearGradient id="åçûìßííûé_ãðàäèåíò_45" x1="588.46" y1="371.21" x2="774.81" y2="371.21" gradientUnits="userSpaceOnUse"><stop offset="0" stop-color="#b42782"/><stop offset="1" stop-color="#cf63a2"/></linearGradient><linearGradient id="linear-gradient-6" x1="456.47" y1="401.98" x2="509.75" y2="401.98" xlink:href="#linear-gradient-3"/><linearGradient id="linear-gradient-7" x1="465.8" y1="516.92" x2="616.07" y2="516.92" gradientUnits="userSpaceOnUse"><stop offset="0" stop-color="#483ca6"/><stop offset="1" stop-color="#59278f"/></linearGradient></defs><g id="Layer_2" data-name="Layer 2"><g id="Layer_1-2" data-name="Layer 1"><g id="cloud"><path class="cls-1" d="M658.36,676.4V785.79c0,36.32-14.31,61-37.6,71.88l0,0-51.29,29.49v0c21.15-11.65,34-35.65,34-70v-119a28.21,28.21,0,0,0-3.67-13.93l53.57-28.36A44.62,44.62,0,0,1,658.36,676.4Z"/><path class="cls-2" d="M653.37,655.88,599.8,684.24a28.19,28.19,0,0,0-10.48-10.57L367.52,545.76a12.91,12.91,0,0,0-8.61-1.6l46.72-26.64a21.7,21.7,0,0,1,21.58,0l208.7,120A44.65,44.65,0,0,1,653.37,655.88Z"/><path class="cls-3" d="M603.47,698.17v119c0,34.4-12.84,58.4-34,70L548.62,855.3q-6.2-2.4-12.6-5.47T523.07,843c-74.71-43.14-120.26-129.84-120.26-204.56l1.7-18.93-50.4-72.58,4.8-2.74a12.91,12.91,0,0,1,8.61,1.6l221.8,127.91a28.3,28.3,0,0,1,14.15,24.5Z"/><path class="cls-4" d="M603.47,698.17v119c0,34.4-12.84,58.4-34,70-24.79,13.67-61,10.4-101.29-12.87-74.72-43.14-120.26-129.84-120.26-204.56V557.08a13.07,13.07,0,0,1,11-12.92,12.91,12.91,0,0,1,8.61,1.6l221.8,127.91a28.3,28.3,0,0,1,14.15,24.5Z"/><path class="cls-5" d="M506.44,737.27c0-22.14-17.94-50.45-40.08-63.24s-40.09-5.19-40.09,17c0,13.11,6.3,28.39,16,41.33v32.06c0,13.29,10.77,30.27,24.06,37.94h0c13.28,7.67,24.05,3.12,24.05-10.16V760.08C500.15,758.39,506.44,750.38,506.44,737.27Z"/><path class="cls-6" d="M880.28,63.71,815.21,22.4h0c-30.54-21.13-77.9-18.67-131.07,12-6,3.45-11.88,7.21-17.7,11.19l-37.72-24.2a100,100,0,0,0-11.3-7.25l-.06-.05h0C574.12-9.74,511-4.07,440.61,36.55c-67.31,38.86-128,102.1-171,172.13-20.41,4.95-42.26,13.86-65,27C91.6,300.89,0,445.38,0,558.37c0,50.24,18.12,85.78,48.17,104h0l60.59,38.27,8.54-25c26.48-2.77,56.08-12.85,87.33-30.89,42-24.22,81-59.37,113.42-99.78,35.73,1.13,77.69-10.56,122.59-36.48,49.58-28.62,95.57-70.47,133.55-118.51,29.36,8.82,67.84,2.24,110-22.09,92.11-53.18,166.77-171,166.77-263.06,0-22-4.25-40.49-12-55.24Z"/><path class="cls-7" d="M267.13,275.13c22.71-13.11,44.56-22,65-27,43-70,103.73-133.27,171-172.14,96.45-55.68,179.38-45.7,216,16.06a284.9,284.9,0,0,1,27.54-18.17c92.11-53.18,166.77-21.62,166.77,70.49S838.78,354.28,746.67,407.46c-42.14,24.33-80.62,30.91-110,22.08-38,48-84,89.9-133.55,118.52-44.89,25.92-86.86,37.61-122.59,36.48-32.47,40.4-71.47,75.56-113.42,99.78-113,65.24-204.6,26.53-204.6-86.47S154.13,340.37,267.13,275.13Z"/><polygon class="cls-8" points="588.46 427.86 635.04 320.27 681.63 212.68 728.22 266.48 774.8 320.27 708.6 358.49 708.6 498.6 654.66 529.74 654.66 389.64 588.46 427.86"/><path class="cls-9" d="M456.47,417.36c0,9.28,4.75,14.72,11.94,15.33a18.2,18.2,0,0,0,4.44-.19h0a30.81,30.81,0,0,0,10.24-3.88c14.71-8.5,26.64-27.31,26.64-42,0-8-3.48-13.08-9-14.77a14,14,0,0,0-2.87-.56h-.06c-4.22-.36-9.27.93-14.71,4.07C468.39,383.83,456.47,402.64,456.47,417.36Z"/><path class="cls-10" d="M473.56,421.94q1.41-.12,2.88-.12h.36c9.27,0,20,3.15,31.47,9.76,17.41,10.06,33.17,26.22,44.58,44.21S571.31,513.6,571.31,531V638.72c-.1,3.39,2.08,6.78,6.55,9.36a32.5,32.5,0,0,0,16.06,3.78h.13a36.62,36.62,0,0,0,7.66-.86,27.7,27.7,0,0,0,7.8-2.92c4.38-2.51,6.56-5.83,6.56-9.13v-82.1c0-29.76-8.11-67.14-27.61-97.9S548.17,405,508.27,386.82a63.74,63.74,0,0,0-13.7-4.43c-.62-.14-1.24-.26-1.86-.37h0c-2.74-.23-6,.6-9.56,2.64-9.57,5.53-17.31,17.75-17.31,27.32C465.8,418,468.88,421.54,473.56,421.94Z"/></g></g></g></svg>