<svg xmlns="http://www.w3.org/2000/svg" xmlns:xlink="http://www.w3.org/1999/xlink" viewBox="0 0 941.55 984.25"><defs><style>.cls-1{fill:url(#linear-gradient);}.cls-2{fill:url(#linear-gradient-2);}.cls-3{fill:url(#åçûìßííûé_ãðàäèåíò_45);}.cls-4{fill:url(#linear-gradient-3);}.cls-5{fill:url(#linear-gradient-4);}.cls-6{fill:url(#linear-gradient-5);}.cls-7{fill:url(#åçûìßííûé_ãðàäèåíò_12);}.cls-8{fill:url(#linear-gradient-6);}.cls-9{fill:#fff;}.cls-10{fill:url(#linear-gradient-7);}.cls-11{fill:url(#linear-gradient-8);}.cls-12{fill:url(#linear-gradient-9);}.cls-13{fill:url(#linear-gradient-10);}.cls-14{fill:url(#linear-gradient-11);}.cls-15{fill:url(#linear-gradient-12);}.cls-16{fill:url(#linear-gradient-13);}.cls-17{fill:url(#linear-gradient-14);}.cls-18{fill:url(#linear-gradient-15);}.cls-19{fill:url(#linear-gradient-16);}.cls-20{fill:url(#linear-gradient-17);}.cls-21{fill:url(#linear-gradient-18);}.cls-22{fill:url(#linear-gradient-19);}.cls-23{fill:url(#linear-gradient-20);}.cls-24{fill:url(#linear-gradient-21);}.cls-25{fill:url(#linear-gradient-22);}.cls-26{fill:url(#linear-gradient-23);}.cls-27{fill:url(#linear-gradient-24);}.cls-28{fill:url(#linear-gradient-25);}.cls-29{fill:url(#linear-gradient-26);}.cls-30{fill:url(#linear-gradient-27);}.cls-31{fill:url(#linear-gradient-28);}.cls-32{fill:url(#linear-gradient-29);}.cls-33{fill:url(#linear-gradient-30);}.cls-34{fill:url(#linear-gradient-31);}.cls-35{fill:url(#linear-gradient-32);}.cls-36{fill:url(#linear-gradient-33);}.cls-37{fill:url(#linear-gradient-34);}.cls-38{fill:url(#linear-gradient-35);}.cls-39{fill:url(#linear-gradient-36);}.cls-40{fill:url(#linear-gradient-37);}.cls-41{fill:url(#linear-gradient-38);}.cls-42{fill:url(#linear-gradient-39);}.cls-43{fill:url(#linear-gradient-40);}.cls-44{fill:url(#linear-gradient-41);}.cls-45{fill:url(#linear-gradient-42);}.cls-46{fill:url(#linear-gradient-43);}.cls-47{fill:url(#linear-gradient-44);}.cls-48{fill:url(#linear-gradient-45);}.cls-49{fill:url(#linear-gradient-46);}.cls-50{fill:url(#linear-gradient-47);}.cls-51{fill:url(#linear-gradient-48);}.cls-52{fill:url(#åçûìßííûé_ãðàäèåíò_8);}</style><linearGradient id="linear-gradient" y1="655.92" x2="379.48" y2="655.92" gradientUnits="userSpaceOnUse"><stop offset="0" stop-color="#483ca6"/><stop offset="1" stop-color="#59278f"/></linearGradient><linearGradient id="linear-gradient-2" x1="24.71" y1="699.78" x2="939.5" y2="699.78" gradientUnits="userSpaceOnUse"><stop offset="0" stop-color="#6a5ebf"/><stop offset="1" stop-color="#6e3aa5"/></linearGradient><linearGradient id="åçûìßííûé_ãðàäèåíò_45" x1="116.1" y1="692.47" x2="815.87" y2="692.47" gradientUnits="userSpaceOnUse"><stop offset="0" stop-color="#b42782"/><stop offset="1" stop-color="#cf63a2"/></linearGradient><linearGradient id="linear-gradient-3" x1="9.2" y1="378.19" x2="601.09" y2="378.19" xlink:href="#linear-gradient-2"/><linearGradient id="linear-gradient-4" x1="15.69" y1="389.51" x2="607.26" y2="389.51" gradientUnits="userSpaceOnUse"><stop offset="0" stop-color="#2e256b"/><stop offset="1" stop-color="#5a3087"/></linearGradient><linearGradient id="linear-gradient-5" x1="351.26" y1="800.98" x2="941.55" y2="800.98" xlink:href="#linear-gradient-4"/><linearGradient id="åçûìßííûé_ãðàäèåíò_12" x1="33.65" y1="389.48" x2="589.05" y2="389.48" gradientUnits="userSpaceOnUse"><stop offset="0" stop-color="#0066e0"/><stop offset="1" stop-color="#5cb9e2"/></linearGradient><linearGradient id="linear-gradient-6" x1="150.51" y1="752.99" x2="204.59" y2="752.99" xlink:href="#linear-gradient-4"/><linearGradient id="linear-gradient-7" x1="200.51" y1="724.1" x2="254.6" y2="724.1" xlink:href="#linear-gradient-4"/><linearGradient id="linear-gradient-8" x1="250.51" y1="695.22" x2="304.6" y2="695.22" xlink:href="#linear-gradient-4"/><linearGradient id="linear-gradient-9" x1="300.51" y1="666.33" x2="354.6" y2="666.33" xlink:href="#linear-gradient-4"/><linearGradient id="linear-gradient-10" x1="350.52" y1="637.44" x2="404.61" y2="637.44" xlink:href="#linear-gradient-4"/><linearGradient id="linear-gradient-11" x1="400.52" y1="608.56" x2="454.61" y2="608.56" xlink:href="#linear-gradient-4"/><linearGradient id="linear-gradient-12" x1="450.52" y1="579.67" x2="504.61" y2="579.67" xlink:href="#linear-gradient-4"/><linearGradient id="linear-gradient-13" x1="500.52" y1="550.78" x2="554.61" y2="550.78" xlink:href="#linear-gradient-4"/><linearGradient id="linear-gradient-14" x1="550.53" y1="521.9" x2="604.62" y2="521.9" xlink:href="#linear-gradient-4"/><linearGradient id="linear-gradient-15" x1="197.26" y1="780.13" x2="251.35" y2="780.13" xlink:href="#linear-gradient-4"/><linearGradient id="linear-gradient-16" x1="247.26" y1="751.24" x2="301.35" y2="751.24" xlink:href="#linear-gradient-4"/><linearGradient id="linear-gradient-17" x1="297.27" y1="722.35" x2="351.35" y2="722.35" xlink:href="#linear-gradient-4"/><linearGradient id="linear-gradient-18" x1="347.27" y1="693.47" x2="401.36" y2="693.47" xlink:href="#linear-gradient-4"/><linearGradient id="linear-gradient-19" x1="397.27" y1="664.58" x2="451.36" y2="664.58" xlink:href="#linear-gradient-4"/><linearGradient id="linear-gradient-20" x1="447.27" y1="635.7" x2="501.36" y2="635.7" xlink:href="#linear-gradient-4"/><linearGradient id="linear-gradient-21" x1="497.28" y1="606.81" x2="551.37" y2="606.81" xlink:href="#linear-gradient-4"/><linearGradient id="linear-gradient-22" x1="547.28" y1="577.92" x2="601.37" y2="577.92" xlink:href="#linear-gradient-4"/><linearGradient id="linear-gradient-23" x1="597.28" y1="549.04" x2="651.37" y2="549.04" xlink:href="#linear-gradient-4"/><linearGradient id="linear-gradient-24" x1="244.01" y1="807.27" x2="298.1" y2="807.27" xlink:href="#linear-gradient-4"/><linearGradient id="linear-gradient-25" x1="294.02" y1="778.38" x2="348.11" y2="778.38" xlink:href="#linear-gradient-4"/><linearGradient id="linear-gradient-26" x1="344.02" y1="749.49" x2="398.11" y2="749.49" xlink:href="#linear-gradient-4"/><linearGradient id="linear-gradient-27" x1="394.02" y1="720.61" x2="448.11" y2="720.61" xlink:href="#linear-gradient-4"/><linearGradient id="linear-gradient-28" x1="444.03" y1="691.72" x2="498.11" y2="691.72" xlink:href="#linear-gradient-4"/><linearGradient id="linear-gradient-29" x1="494.03" y1="662.83" x2="548.12" y2="662.83" xlink:href="#linear-gradient-4"/><linearGradient id="linear-gradient-30" x1="544.03" y1="633.95" x2="598.12" y2="633.95" xlink:href="#linear-gradient-4"/><linearGradient id="linear-gradient-31" x1="594.03" y1="605.06" x2="648.12" y2="605.06" xlink:href="#linear-gradient-4"/><linearGradient id="linear-gradient-32" x1="644.04" y1="576.17" x2="698.13" y2="576.17" xlink:href="#linear-gradient-4"/><linearGradient id="linear-gradient-33" x1="290.77" y1="834.4" x2="344.86" y2="834.4" xlink:href="#linear-gradient-4"/><linearGradient id="linear-gradient-34" x1="340.77" y1="805.52" x2="394.86" y2="805.52" xlink:href="#linear-gradient-4"/><linearGradient id="linear-gradient-35" x1="390.77" y1="776.63" x2="444.86" y2="776.63" xlink:href="#linear-gradient-4"/><linearGradient id="linear-gradient-36" x1="440.78" y1="747.74" x2="494.87" y2="747.74" xlink:href="#linear-gradient-4"/><linearGradient id="linear-gradient-37" x1="490.78" y1="718.86" x2="544.87" y2="718.86" xlink:href="#linear-gradient-4"/><linearGradient id="linear-gradient-38" x1="540.78" y1="689.97" x2="594.87" y2="689.97" xlink:href="#linear-gradient-4"/><linearGradient id="linear-gradient-39" x1="590.79" y1="661.08" x2="644.87" y2="661.08" xlink:href="#linear-gradient-4"/><linearGradient id="linear-gradient-40" x1="640.79" y1="632.2" x2="694.88" y2="632.2" xlink:href="#linear-gradient-4"/><linearGradient id="linear-gradient-41" x1="690.79" y1="603.31" x2="744.88" y2="603.31" xlink:href="#linear-gradient-4"/><linearGradient id="linear-gradient-42" x1="337.52" y1="861.54" x2="391.61" y2="861.54" xlink:href="#linear-gradient-4"/><linearGradient id="linear-gradient-43" x1="387.53" y1="832.65" x2="441.62" y2="832.65" xlink:href="#linear-gradient-4"/><linearGradient id="linear-gradient-44" x1="636.28" y1="689.03" x2="690.37" y2="689.03" xlink:href="#linear-gradient-4"/><linearGradient id="linear-gradient-45" x1="440.48" y1="760.66" x2="638.85" y2="760.66" xlink:href="#linear-gradient-4"/><linearGradient id="linear-gradient-46" x1="687.54" y1="659.33" x2="741.63" y2="659.33" xlink:href="#linear-gradient-4"/><linearGradient id="linear-gradient-47" x1="737.54" y1="630.45" x2="791.63" y2="630.45" xlink:href="#linear-gradient-4"/><linearGradient id="linear-gradient-48" x1="229.83" y1="372.07" x2="426.66" y2="372.07" xlink:href="#linear-gradient-4"/><linearGradient id="åçûìßííûé_ãðàäèåíò_8" x1="266" y1="388.62" x2="432.34" y2="388.62" gradientUnits="userSpaceOnUse"><stop offset="0" stop-color="#ffab2e"/><stop offset="1" stop-color="#ffe200"/></linearGradient></defs><g id="Layer_2" data-name="Layer 2"><g id="Layer_1-2" data-name="Layer 1"><g id="laptop_1"><path class="cls-1" d="M344.5,955.6l-5.66,4.21L35.73,785.1V759.23h-20V358.52A30.6,30.6,0,0,1,25,336.59l-15.62-9a30.56,30.56,0,0,0-9.34,22V779.91a26.1,26.1,0,0,0,13.06,22.61L316,977.21a18,18,0,0,0,4.32,1.79,66.43,66.43,0,0,0,59.19-3.7h0Z"/><path class="cls-2" d="M939.5,624.39l-10.86-6.92a7.25,7.25,0,0,0-.88-.62L625.51,442.58a35.92,35.92,0,0,0-35.89,0L29.06,766.25a8.71,8.71,0,0,0,0,15.08L338.58,959.79a14.84,14.84,0,0,0,14.85,0L926,629.64l.62,2.42Z"/><path class="cls-3" d="M805.48,651.84,392.71,890.17a58.09,58.09,0,0,1-58.06,0L124.25,768.87a16.27,16.27,0,0,1,0-28.19L555.62,491.61a34.4,34.4,0,0,1,34.4,0L805.47,615.82A20.8,20.8,0,0,1,805.48,651.84Z"/><path class="cls-4" d="M601.09,10.83,585.15,1.74h0a12.6,12.6,0,0,0-12.72,0L15.15,323.24a30.37,30.37,0,0,0-6,4.49l15.61,9a30.57,30.57,0,0,0-9.27,21.93V756.39l575.9-332.28V14.16Z"/><path class="cls-5" d="M607.26,21.47V426.34a11.35,11.35,0,0,1-5.68,9.84L23.91,769.49a5.48,5.48,0,0,1-8.22-4.75V358.52A30.6,30.6,0,0,1,25,336.59,29.81,29.81,0,0,1,31,332L588.26,10.5a12,12,0,0,1,2.91-1.22A12.66,12.66,0,0,1,607.26,21.47Z"/><path class="cls-6" d="M941.41,629l-2.22,8.78a42.62,42.62,0,0,1-20,26.43L379.66,975.6a19.58,19.58,0,0,1-28.12-10.07h0a4.45,4.45,0,0,1,1.94-5.41L935.25,624.3A4.19,4.19,0,0,1,941.41,629Z"/><polygon class="cls-7" points="589.05 423.37 33.65 743.57 33.65 355.6 589.05 35.4 589.05 423.37"/><path class="cls-8" d="M204.59,749.27l-1.25,0a6.36,6.36,0,0,0-2-1.74l-18-10.4a11.66,11.66,0,0,0-11.65,0l-18,10.4a6.41,6.41,0,0,0-2.36,2.35h-.84v2.94a4.86,4.86,0,0,0,0,.54v.18h0a6.37,6.37,0,0,0,3.19,5.13l17.15,9.9a13.36,13.36,0,0,0,13.37,0l17.15-9.9a6.39,6.39,0,0,0,3.21-5.71h0Z"/><path class="cls-9" d="M201.38,755.2l-17.15,9.9a13.36,13.36,0,0,1-13.37,0l-17.15-9.9a6.44,6.44,0,0,1,0-11.15l18-10.4a11.66,11.66,0,0,1,11.65,0l18,10.4A6.44,6.44,0,0,1,201.38,755.2Z"/><path class="cls-10" d="M254.6,720.39h-1.26a6.49,6.49,0,0,0-2-1.74l-18-10.39a11.66,11.66,0,0,0-11.65,0l-18,10.39a6.28,6.28,0,0,0-2.36,2.36h-.85v3.65h0a6.35,6.35,0,0,0,3.2,5.13l17.14,9.9a13.36,13.36,0,0,0,13.37,0l17.15-9.9a6.37,6.37,0,0,0,3.21-5.71h0Z"/><path class="cls-9" d="M251.38,726.31l-17.15,9.9a13.36,13.36,0,0,1-13.37,0l-17.14-9.9a6.43,6.43,0,0,1,0-11.15l18-10.39a11.66,11.66,0,0,1,11.65,0l18,10.39A6.44,6.44,0,0,1,251.38,726.31Z"/><path class="cls-11" d="M304.6,691.5l-1.25,0a6.4,6.4,0,0,0-2-1.74l-18-10.4a11.67,11.67,0,0,0-11.66,0l-18,10.4a6.33,6.33,0,0,0-2.36,2.35h-.84v2.94a4.86,4.86,0,0,0,0,.54v.17h0a6.35,6.35,0,0,0,3.19,5.14l17.15,9.9a13.39,13.39,0,0,0,13.36,0l17.15-9.9a6.37,6.37,0,0,0,3.21-5.71h0Z"/><path class="cls-9" d="M301.38,697.43l-17.15,9.9a13.39,13.39,0,0,1-13.36,0l-17.15-9.9a6.44,6.44,0,0,1,0-11.15l18-10.4a11.67,11.67,0,0,1,11.66,0l18,10.4A6.44,6.44,0,0,1,301.38,697.43Z"/><path class="cls-12" d="M354.6,662.61l-1.25,0a6.4,6.4,0,0,0-2-1.74l-18-10.4a11.66,11.66,0,0,0-11.65,0l-18,10.4a6.41,6.41,0,0,0-2.36,2.35h-.84v2.94a4.86,4.86,0,0,0,0,.54v.18h0a6.37,6.37,0,0,0,3.19,5.13l17.15,9.9a13.34,13.34,0,0,0,13.36,0l17.15-9.9a6.37,6.37,0,0,0,3.21-5.71h0Z"/><path class="cls-9" d="M351.38,668.54l-17.15,9.9a13.34,13.34,0,0,1-13.36,0l-17.15-9.9a6.44,6.44,0,0,1,0-11.15l18-10.4a11.66,11.66,0,0,1,11.65,0l18,10.4A6.43,6.43,0,0,1,351.38,668.54Z"/><path class="cls-13" d="M404.61,633.73h-1.26a6.49,6.49,0,0,0-2-1.74l-18-10.39a11.66,11.66,0,0,0-11.65,0l-18,10.39a6.43,6.43,0,0,0-2.36,2.36h-.84v2.94a4.86,4.86,0,0,0,0,.54V638h0a6.34,6.34,0,0,0,3.19,5.13l17.15,9.9a13.36,13.36,0,0,0,13.37,0l17.15-9.9a6.37,6.37,0,0,0,3.21-5.71h0Z"/><path class="cls-9" d="M401.39,639.65l-17.15,9.9a13.36,13.36,0,0,1-13.37,0l-17.15-9.9a6.44,6.44,0,0,1,0-11.15l18-10.39a11.66,11.66,0,0,1,11.65,0l18,10.39A6.44,6.44,0,0,1,401.39,639.65Z"/><path class="cls-14" d="M454.61,604.84l-1.26,0a6.25,6.25,0,0,0-2-1.74l-18-10.4a11.66,11.66,0,0,0-11.65,0l-18,10.4a6.33,6.33,0,0,0-2.36,2.35h-.85v3.65h0a6.39,6.39,0,0,0,3.2,5.14l17.15,9.9a13.39,13.39,0,0,0,13.36,0l17.15-9.9a6.39,6.39,0,0,0,3.21-5.71h0Z"/><path class="cls-9" d="M451.39,610.77l-17.15,9.9a13.39,13.39,0,0,1-13.36,0l-17.15-9.9a6.43,6.43,0,0,1,0-11.15l18-10.4a11.66,11.66,0,0,1,11.65,0l18,10.4A6.44,6.44,0,0,1,451.39,610.77Z"/><path class="cls-15" d="M504.61,576l-1.25,0a6.4,6.4,0,0,0-2-1.74l-18-10.4a11.67,11.67,0,0,0-11.66,0l-18,10.4a6.33,6.33,0,0,0-2.36,2.35h-.84v2.94a4.86,4.86,0,0,0,0,.54v.18h0a6.35,6.35,0,0,0,3.19,5.13l17.15,9.9a13.34,13.34,0,0,0,13.36,0l17.15-9.9a6.37,6.37,0,0,0,3.21-5.71h0Z"/><path class="cls-9" d="M501.39,581.88l-17.15,9.9a13.34,13.34,0,0,1-13.36,0l-17.15-9.9a6.44,6.44,0,0,1,0-11.15l18-10.4a11.67,11.67,0,0,1,11.66,0l18,10.4A6.44,6.44,0,0,1,501.39,581.88Z"/><path class="cls-16" d="M554.61,547.07h-1.25a6.41,6.41,0,0,0-2-1.74l-18-10.39a11.66,11.66,0,0,0-11.65,0l-18,10.39a6.43,6.43,0,0,0-2.36,2.36h-.84v2.94a4.86,4.86,0,0,0,0,.54v.17h0a6.34,6.34,0,0,0,3.19,5.13l17.15,9.9a13.36,13.36,0,0,0,13.37,0l17.14-9.9a6.35,6.35,0,0,0,3.21-5.71h0Z"/><path class="cls-9" d="M551.39,553l-17.14,9.9a13.36,13.36,0,0,1-13.37,0L503.73,553a6.44,6.44,0,0,1,0-11.15l18-10.39a11.66,11.66,0,0,1,11.65,0l18,10.39A6.43,6.43,0,0,1,551.39,553Z"/><path class="cls-17" d="M604.62,518.18l-1.26,0a6.36,6.36,0,0,0-2-1.74l-18-10.4a11.66,11.66,0,0,0-11.65,0l-18,10.4a6.41,6.41,0,0,0-2.36,2.35h-.84v2.94a4.86,4.86,0,0,0,0,.54v.17h0a6.37,6.37,0,0,0,3.19,5.14l17.15,9.9a13.41,13.41,0,0,0,13.37,0l17.15-9.9a6.39,6.39,0,0,0,3.21-5.71h0Z"/><path class="cls-9" d="M601.4,524.11,584.25,534a13.41,13.41,0,0,1-13.37,0l-17.15-9.9a6.44,6.44,0,0,1,0-11.15l18-10.4a11.66,11.66,0,0,1,11.65,0l18,10.4A6.44,6.44,0,0,1,601.4,524.11Z"/><path class="cls-18" d="M251.35,776.41l-1.26,0a6.25,6.25,0,0,0-2-1.74l-18-10.4a11.66,11.66,0,0,0-11.65,0l-18,10.4a6.33,6.33,0,0,0-2.36,2.35h-.84V780a4.86,4.86,0,0,0,0,.54v.17h0a6.35,6.35,0,0,0,3.19,5.14l17.15,9.9a13.39,13.39,0,0,0,13.36,0l17.15-9.9a6.37,6.37,0,0,0,3.21-5.71h0Z"/><path class="cls-9" d="M248.13,782.34,231,792.24a13.39,13.39,0,0,1-13.36,0l-17.15-9.9a6.44,6.44,0,0,1,0-11.15l18-10.4a11.66,11.66,0,0,1,11.65,0l18,10.4A6.44,6.44,0,0,1,248.13,782.34Z"/><path class="cls-19" d="M301.35,747.52l-1.25,0a6.4,6.4,0,0,0-2-1.74l-18-10.4a11.66,11.66,0,0,0-11.65,0l-18,10.4a6.41,6.41,0,0,0-2.36,2.35h-.84v2.94a4.86,4.86,0,0,0,0,.54v.18h0a6.37,6.37,0,0,0,3.19,5.13l17.15,9.9a13.34,13.34,0,0,0,13.36,0l17.15-9.9a6.37,6.37,0,0,0,3.21-5.71h0Z"/><path class="cls-9" d="M298.13,753.45,281,763.35a13.34,13.34,0,0,1-13.36,0l-17.15-9.9a6.44,6.44,0,0,1,0-11.15l18-10.4a11.66,11.66,0,0,1,11.65,0l18,10.4A6.44,6.44,0,0,1,298.13,753.45Z"/><path class="cls-20" d="M351.35,718.64H350.1a6.49,6.49,0,0,0-2-1.74l-18-10.39a11.66,11.66,0,0,0-11.65,0l-18,10.39a6.43,6.43,0,0,0-2.36,2.36h-.84v2.94a4.86,4.86,0,0,0,0,.54v.17h0a6.34,6.34,0,0,0,3.19,5.13l17.15,9.9A13.36,13.36,0,0,0,331,738l17.15-9.9a6.37,6.37,0,0,0,3.21-5.7h0Z"/><path class="cls-9" d="M348.14,724.56,331,734.46a13.36,13.36,0,0,1-13.37,0l-17.15-9.9a6.44,6.44,0,0,1,0-11.15l18-10.39a11.66,11.66,0,0,1,11.65,0l18,10.39A6.44,6.44,0,0,1,348.14,724.56Z"/><path class="cls-21" d="M401.36,689.75l-1.26,0a6.36,6.36,0,0,0-2-1.74l-18-10.4a11.66,11.66,0,0,0-11.65,0l-18,10.4a6.26,6.26,0,0,0-2.36,2.35h-.85V694h0a6.39,6.39,0,0,0,3.2,5.14l17.14,9.9a13.41,13.41,0,0,0,13.37,0l17.15-9.9a6.39,6.39,0,0,0,3.21-5.71h0Z"/><path class="cls-9" d="M398.14,695.68,381,705.58a13.36,13.36,0,0,1-13.37,0l-17.14-9.9a6.43,6.43,0,0,1,0-11.15l18-10.4a11.66,11.66,0,0,1,11.65,0l18,10.4A6.44,6.44,0,0,1,398.14,695.68Z"/><path class="cls-22" d="M451.36,660.87h-1.25a6.4,6.4,0,0,0-2-1.74l-18-10.4a11.66,11.66,0,0,0-11.65,0l-18,10.4a6.33,6.33,0,0,0-2.36,2.35h-.84v2.94a4.86,4.86,0,0,0,0,.54v.18h0a6.35,6.35,0,0,0,3.19,5.13l17.15,9.9a13.34,13.34,0,0,0,13.36,0l17.15-9.9a6.37,6.37,0,0,0,3.21-5.71h0Z"/><path class="cls-9" d="M448.14,666.79,431,676.69a13.34,13.34,0,0,1-13.36,0l-17.15-9.9a6.44,6.44,0,0,1,0-11.15l18-10.4a11.66,11.66,0,0,1,11.65,0l18,10.4A6.44,6.44,0,0,1,448.14,666.79Z"/><path class="cls-23" d="M501.36,632h-1.25a6.53,6.53,0,0,0-2-1.74l-18-10.39a11.66,11.66,0,0,0-11.65,0l-18,10.39a6.43,6.43,0,0,0-2.36,2.36h-.84v2.94a4.86,4.86,0,0,0,0,.54v.17h0a6.34,6.34,0,0,0,3.19,5.13l17.15,9.9a13.34,13.34,0,0,0,13.36,0l17.15-9.9a6.35,6.35,0,0,0,3.21-5.7h0Z"/><path class="cls-9" d="M498.14,637.9,481,647.8a13.34,13.34,0,0,1-13.36,0l-17.15-9.9a6.44,6.44,0,0,1,0-11.15l18-10.39a11.66,11.66,0,0,1,11.65,0l18,10.39A6.43,6.43,0,0,1,498.14,637.9Z"/><path class="cls-24" d="M551.37,603.09l-1.26,0a6.36,6.36,0,0,0-2-1.74l-18-10.4a11.66,11.66,0,0,0-11.65,0l-18,10.4a6.41,6.41,0,0,0-2.36,2.35h-.84v2.94a4.86,4.86,0,0,0,0,.54v.17h0a6.37,6.37,0,0,0,3.19,5.14l17.15,9.9a13.41,13.41,0,0,0,13.37,0l17.15-9.9a6.39,6.39,0,0,0,3.21-5.71h0Z"/><path class="cls-9" d="M548.15,609,531,618.92a13.36,13.36,0,0,1-13.37,0L500.48,609a6.44,6.44,0,0,1,0-11.15l18-10.4a11.66,11.66,0,0,1,11.65,0l18,10.4A6.44,6.44,0,0,1,548.15,609Z"/><path class="cls-25" d="M601.37,574.21h-1.26a6.25,6.25,0,0,0-2-1.74l-18-10.4a11.66,11.66,0,0,0-11.65,0l-18,10.4a6.26,6.26,0,0,0-2.36,2.35h-.85v3.66h0a6.37,6.37,0,0,0,3.2,5.13l17.15,9.9a13.34,13.34,0,0,0,13.36,0l17.15-9.9a6.39,6.39,0,0,0,3.21-5.71h0Z"/><path class="cls-9" d="M598.15,580.13,581,590a13.34,13.34,0,0,1-13.36,0l-17.15-9.9a6.43,6.43,0,0,1,0-11.15l18-10.4a11.66,11.66,0,0,1,11.65,0l18,10.4A6.44,6.44,0,0,1,598.15,580.13Z"/><path class="cls-26" d="M651.37,545.32h-1.25a6.53,6.53,0,0,0-2-1.74l-18-10.39a11.67,11.67,0,0,0-11.66,0l-18,10.39a6.36,6.36,0,0,0-2.36,2.36h-.84v2.94a4.86,4.86,0,0,0,0,.54v.17h0a6.32,6.32,0,0,0,3.19,5.13l17.15,9.9a13.34,13.34,0,0,0,13.36,0l17.15-9.9a6.35,6.35,0,0,0,3.21-5.7h0Z"/><path class="cls-9" d="M648.15,551.24,631,561.14a13.34,13.34,0,0,1-13.36,0l-17.15-9.9a6.44,6.44,0,0,1,0-11.15l18-10.39a11.67,11.67,0,0,1,11.66,0l18,10.39A6.44,6.44,0,0,1,648.15,551.24Z"/><path class="cls-27" d="M298.1,803.55h-1.25a6.63,6.63,0,0,0-2-1.74l-18-10.39a11.66,11.66,0,0,0-11.65,0l-18,10.39a6.43,6.43,0,0,0-2.36,2.36H244v2.94a4.86,4.86,0,0,0,0,.54v.17h0a6.34,6.34,0,0,0,3.19,5.13l17.15,9.9a13.36,13.36,0,0,0,13.37,0l17.15-9.9a6.39,6.39,0,0,0,3.21-5.7h0Z"/><path class="cls-9" d="M294.89,809.47l-17.15,9.9a13.36,13.36,0,0,1-13.37,0l-17.15-9.9a6.44,6.44,0,0,1,0-11.15l18-10.39a11.66,11.66,0,0,1,11.65,0l18,10.39A6.44,6.44,0,0,1,294.89,809.47Z"/><path class="cls-28" d="M348.11,774.66l-1.26,0a6.36,6.36,0,0,0-2-1.74l-18-10.4a11.66,11.66,0,0,0-11.65,0l-18,10.4a6.41,6.41,0,0,0-2.36,2.35H294V779h0a6.4,6.4,0,0,0,3.19,5.14l17.15,9.9a13.41,13.41,0,0,0,13.37,0l17.15-9.9a6.39,6.39,0,0,0,3.21-5.71h0Z"/><path class="cls-9" d="M344.89,780.59l-17.15,9.9a13.36,13.36,0,0,1-13.37,0l-17.15-9.9a6.44,6.44,0,0,1,0-11.15l18-10.4a11.66,11.66,0,0,1,11.65,0l18,10.4A6.44,6.44,0,0,1,344.89,780.59Z"/><path class="cls-29" d="M398.11,745.78h-1.26a6.37,6.37,0,0,0-2-1.74l-18-10.4a11.66,11.66,0,0,0-11.65,0l-18,10.4a6.29,6.29,0,0,0-2.36,2.36H344v2.94a4.86,4.86,0,0,0,0,.54v.18h0a6.33,6.33,0,0,0,3.19,5.13l17.15,9.9a13.34,13.34,0,0,0,13.36,0l17.15-9.9a6.36,6.36,0,0,0,3.21-5.71h0Z"/><path class="cls-9" d="M394.89,751.7l-17.15,9.9a13.34,13.34,0,0,1-13.36,0l-17.15-9.9a6.44,6.44,0,0,1,0-11.15l18-10.4a11.66,11.66,0,0,1,11.65,0l18,10.4A6.44,6.44,0,0,1,394.89,751.7Z"/><path class="cls-30" d="M448.11,716.89h-1.25a6.67,6.67,0,0,0-2-1.74l-18-10.39a11.66,11.66,0,0,0-11.65,0l-18,10.39a6.43,6.43,0,0,0-2.36,2.36H394v2.94a4.86,4.86,0,0,0,0,.54v.17h0a6.34,6.34,0,0,0,3.19,5.13l17.15,9.9a13.34,13.34,0,0,0,13.36,0l17.15-9.9a6.35,6.35,0,0,0,3.21-5.7h0Z"/><path class="cls-9" d="M444.89,722.81l-17.15,9.9a13.34,13.34,0,0,1-13.36,0l-17.15-9.9a6.44,6.44,0,0,1,0-11.15l18-10.39a11.66,11.66,0,0,1,11.65,0l18,10.39A6.44,6.44,0,0,1,444.89,722.81Z"/><path class="cls-31" d="M498.11,688l-1.25,0a6.36,6.36,0,0,0-2-1.74l-18-10.4a11.66,11.66,0,0,0-11.65,0l-18,10.4a6.41,6.41,0,0,0-2.36,2.35H444v2.94a4.86,4.86,0,0,0,0,.54v.18h0a6.37,6.37,0,0,0,3.19,5.13l17.15,9.9a13.41,13.41,0,0,0,13.37,0l17.15-9.9a6.39,6.39,0,0,0,3.21-5.71h0Z"/><path class="cls-9" d="M494.9,693.93l-17.15,9.9a13.36,13.36,0,0,1-13.37,0l-17.15-9.9a6.44,6.44,0,0,1,0-11.15l18-10.4a11.66,11.66,0,0,1,11.65,0l18,10.4A6.44,6.44,0,0,1,494.9,693.93Z"/><path class="cls-32" d="M548.12,659.12h-1.26a6.49,6.49,0,0,0-2-1.74l-18-10.4a11.66,11.66,0,0,0-11.65,0l-18,10.4a6.22,6.22,0,0,0-2.36,2.36H494v3.65h0a6.37,6.37,0,0,0,3.2,5.13l17.14,9.9a13.36,13.36,0,0,0,13.37,0l17.15-9.9a6.38,6.38,0,0,0,3.21-5.71h0Z"/><path class="cls-9" d="M544.9,665l-17.15,9.9a13.36,13.36,0,0,1-13.37,0L497.24,665a6.43,6.43,0,0,1,0-11.15l18-10.4a11.66,11.66,0,0,1,11.65,0l18,10.4A6.44,6.44,0,0,1,544.9,665Z"/><path class="cls-33" d="M598.12,630.23h-1.26a6.5,6.5,0,0,0-2-1.74l-18-10.39a11.66,11.66,0,0,0-11.65,0l-18,10.39a6.36,6.36,0,0,0-2.36,2.36H544v2.94a4.86,4.86,0,0,0,0,.54v.17h0a6.32,6.32,0,0,0,3.19,5.13l17.15,9.9a13.34,13.34,0,0,0,13.36,0l17.15-9.9a6.35,6.35,0,0,0,3.21-5.7h0Z"/><path class="cls-9" d="M594.9,636.15l-17.15,9.9a13.34,13.34,0,0,1-13.36,0l-17.15-9.9a6.44,6.44,0,0,1,0-11.15l18-10.39a11.66,11.66,0,0,1,11.65,0l18,10.39A6.44,6.44,0,0,1,594.9,636.15Z"/><path class="cls-34" d="M648.12,601.34l-1.25,0a6.4,6.4,0,0,0-2-1.74l-18-10.4a11.66,11.66,0,0,0-11.65,0l-18,10.4a6.41,6.41,0,0,0-2.36,2.35H594v2.94a4.86,4.86,0,0,0,0,.54v.18h0a6.37,6.37,0,0,0,3.19,5.13l17.15,9.9a13.39,13.39,0,0,0,13.36,0l17.15-9.9a6.37,6.37,0,0,0,3.21-5.71h0Z"/><path class="cls-9" d="M644.9,607.27l-17.15,9.9a13.34,13.34,0,0,1-13.36,0l-17.15-9.9a6.44,6.44,0,0,1,0-11.15l18-10.4a11.66,11.66,0,0,1,11.65,0l18,10.4A6.43,6.43,0,0,1,644.9,607.27Z"/><path class="cls-35" d="M698.13,572.46h-1.26a6.49,6.49,0,0,0-2-1.74l-18-10.4a11.66,11.66,0,0,0-11.65,0l-18,10.4a6.36,6.36,0,0,0-2.36,2.36H644V576a4.86,4.86,0,0,0,0,.54v.18h0a6.36,6.36,0,0,0,3.19,5.13l17.15,9.9a13.36,13.36,0,0,0,13.37,0l17.15-9.9a6.38,6.38,0,0,0,3.21-5.71h0Z"/><path class="cls-9" d="M694.91,578.38l-17.15,9.9a13.36,13.36,0,0,1-13.37,0l-17.15-9.9a6.44,6.44,0,0,1,0-11.15l18-10.4a11.66,11.66,0,0,1,11.65,0l18,10.4A6.44,6.44,0,0,1,694.91,578.38Z"/><path class="cls-36" d="M344.86,830.69H343.6a6.37,6.37,0,0,0-2-1.74l-18-10.4a11.66,11.66,0,0,0-11.65,0L294,829a6.29,6.29,0,0,0-2.36,2.36h-.85V835h0a6.33,6.33,0,0,0,3.19,5.13l17.15,9.9a13.34,13.34,0,0,0,13.36,0l17.15-9.9a6.36,6.36,0,0,0,3.21-5.71h0Z"/><path class="cls-9" d="M341.64,836.61l-17.15,9.9a13.34,13.34,0,0,1-13.36,0L294,836.61a6.44,6.44,0,0,1,0-11.15l18-10.39a11.61,11.61,0,0,1,11.65,0l18,10.39A6.44,6.44,0,0,1,341.64,836.61Z"/><path class="cls-37" d="M394.86,801.8h-1.25a6.67,6.67,0,0,0-2-1.74l-18-10.39a11.66,11.66,0,0,0-11.65,0l-18,10.39a6.43,6.43,0,0,0-2.36,2.36h-.84v2.94a4.86,4.86,0,0,0,0,.54v.17h0a6.32,6.32,0,0,0,3.19,5.13l17.15,9.9a13.34,13.34,0,0,0,13.36,0l17.15-9.9a6.35,6.35,0,0,0,3.21-5.7h0Z"/><path class="cls-9" d="M391.64,807.72l-17.15,9.91a13.39,13.39,0,0,1-13.36,0L344,807.72a6.44,6.44,0,0,1,0-11.15l18-10.39a11.66,11.66,0,0,1,11.65,0l18,10.39A6.44,6.44,0,0,1,391.64,807.72Z"/><path class="cls-38" d="M444.86,772.91l-1.25,0a6.36,6.36,0,0,0-2-1.74l-18-10.4a11.66,11.66,0,0,0-11.65,0l-18,10.4a6.41,6.41,0,0,0-2.36,2.35h-.84v2.94a4.86,4.86,0,0,0,0,.54v.18h0a6.37,6.37,0,0,0,3.19,5.13l17.15,9.9a13.41,13.41,0,0,0,13.37,0l17.15-9.9a6.41,6.41,0,0,0,3.21-5.71h0Z"/><path class="cls-9" d="M441.65,778.84l-17.15,9.9a13.36,13.36,0,0,1-13.37,0L394,778.84a6.44,6.44,0,0,1,0-11.15l18-10.4a11.66,11.66,0,0,1,11.65,0l18,10.4A6.44,6.44,0,0,1,441.65,778.84Z"/><path class="cls-39" d="M494.87,744h-1.26a6.49,6.49,0,0,0-2-1.74l-18-10.4a11.66,11.66,0,0,0-11.65,0l-18,10.4a6.36,6.36,0,0,0-2.36,2.36h-.84v3.65h0a6.38,6.38,0,0,0,3.19,5.13l17.15,9.9a13.36,13.36,0,0,0,13.37,0l17.15-9.9a6.38,6.38,0,0,0,3.21-5.71h0Z"/><path class="cls-9" d="M491.65,750l-17.15,9.9a13.36,13.36,0,0,1-13.37,0L444,750a6.44,6.44,0,0,1,0-11.15l18-10.39a11.61,11.61,0,0,1,11.65,0l18,10.39A6.44,6.44,0,0,1,491.65,750Z"/><path class="cls-40" d="M544.87,715.14h-1.26a6.5,6.5,0,0,0-2-1.74l-18-10.39A11.66,11.66,0,0,0,512,703l-18,10.39a6.36,6.36,0,0,0-2.36,2.36h-.84v2.94a4.86,4.86,0,0,0,0,.54v.17h0a6.32,6.32,0,0,0,3.19,5.13l17.15,9.9a13.34,13.34,0,0,0,13.36,0l17.15-9.9a6.35,6.35,0,0,0,3.21-5.7h0Z"/><path class="cls-9" d="M541.65,721.06,524.5,731a13.39,13.39,0,0,1-13.36,0L494,721.06a6.44,6.44,0,0,1,0-11.15l18-10.39a11.66,11.66,0,0,1,11.65,0l18,10.39A6.44,6.44,0,0,1,541.65,721.06Z"/><path class="cls-41" d="M594.87,686.25l-1.25,0a6.4,6.4,0,0,0-2-1.74l-18-10.4a11.66,11.66,0,0,0-11.65,0l-18,10.4a6.41,6.41,0,0,0-2.36,2.35h-.84v2.94a4.86,4.86,0,0,0,0,.54v.18h0a6.37,6.37,0,0,0,3.19,5.13l17.15,9.9a13.34,13.34,0,0,0,13.36,0l17.15-9.9a6.37,6.37,0,0,0,3.21-5.71h0Z"/><path class="cls-9" d="M591.65,692.18l-17.15,9.9a13.34,13.34,0,0,1-13.36,0L544,692.18A6.44,6.44,0,0,1,544,681l18-10.4a11.66,11.66,0,0,1,11.65,0l18,10.4A6.44,6.44,0,0,1,591.65,692.18Z"/><path class="cls-42" d="M644.87,657.37h-1.25a6.49,6.49,0,0,0-2-1.74l-18-10.4a11.66,11.66,0,0,0-11.65,0l-18,10.4a6.36,6.36,0,0,0-2.36,2.36h-.84V661a4.86,4.86,0,0,0,0,.54v.17h0a6.36,6.36,0,0,0,3.19,5.13l17.15,9.9a13.36,13.36,0,0,0,13.37,0l17.15-9.9a6.38,6.38,0,0,0,3.21-5.71h0Z"/><path class="cls-9" d="M641.66,663.29l-17.15,9.9a13.36,13.36,0,0,1-13.37,0L594,663.29a6.44,6.44,0,0,1,0-11.15l18-10.39a11.61,11.61,0,0,1,11.65,0l18,10.39A6.44,6.44,0,0,1,641.66,663.29Z"/><path class="cls-43" d="M694.88,628.48h-1.26a6.63,6.63,0,0,0-2-1.74l-18-10.39a11.66,11.66,0,0,0-11.65,0l-18,10.39a6.28,6.28,0,0,0-2.36,2.36h-.85v3.65h0a6.35,6.35,0,0,0,3.2,5.13l17.14,9.9a13.36,13.36,0,0,0,13.37,0l17.15-9.9a6.37,6.37,0,0,0,3.21-5.7h0Z"/><path class="cls-9" d="M691.66,634.4l-17.15,9.91a13.41,13.41,0,0,1-13.37,0L644,634.4a6.43,6.43,0,0,1,0-11.15l18-10.39a11.66,11.66,0,0,1,11.65,0l18,10.39A6.44,6.44,0,0,1,691.66,634.4Z"/><path class="cls-44" d="M744.88,599.59l-1.26,0a6.25,6.25,0,0,0-2-1.74l-18-10.4a11.66,11.66,0,0,0-11.65,0l-18,10.4a6.33,6.33,0,0,0-2.36,2.35h-.84v2.94a4.86,4.86,0,0,0,0,.54v.18h0A6.35,6.35,0,0,0,694,609l17.15,9.9a13.34,13.34,0,0,0,13.36,0l17.15-9.9a6.37,6.37,0,0,0,3.21-5.71h0Z"/><path class="cls-9" d="M741.66,605.52l-17.15,9.9a13.34,13.34,0,0,1-13.36,0L694,605.52a6.44,6.44,0,0,1,0-11.15L712,584a11.66,11.66,0,0,1,11.65,0l18,10.4A6.44,6.44,0,0,1,741.66,605.52Z"/><path class="cls-45" d="M391.61,857.82l-1.25,0a6.29,6.29,0,0,0-2-1.74l-18-10.4a11.66,11.66,0,0,0-11.65,0l-18,10.4a6.41,6.41,0,0,0-2.36,2.35h-.84v2.94a4.86,4.86,0,0,0,0,.54v.18h0a6.37,6.37,0,0,0,3.19,5.13l17.15,9.9a13.36,13.36,0,0,0,13.37,0l17.14-9.9a6.37,6.37,0,0,0,3.21-5.71h0Z"/><path class="cls-9" d="M388.39,863.75l-17.14,9.9a13.36,13.36,0,0,1-13.37,0l-17.15-9.9a6.44,6.44,0,0,1,0-11.15l18-10.4a11.66,11.66,0,0,1,11.65,0l18,10.4A6.43,6.43,0,0,1,388.39,863.75Z"/><path class="cls-46" d="M441.62,828.94h-1.26a6.49,6.49,0,0,0-2-1.74l-18-10.4a11.66,11.66,0,0,0-11.65,0l-18,10.4a6.36,6.36,0,0,0-2.36,2.36h-.84v2.94a4.86,4.86,0,0,0,0,.54v.17h0a6.36,6.36,0,0,0,3.19,5.13l17.15,9.9a13.36,13.36,0,0,0,13.37,0l17.15-9.9a6.38,6.38,0,0,0,3.21-5.71h0Z"/><path class="cls-9" d="M438.4,834.86l-17.15,9.9a13.36,13.36,0,0,1-13.37,0l-17.15-9.9a6.44,6.44,0,0,1,0-11.15l18-10.39a11.61,11.61,0,0,1,11.65,0l18,10.39A6.44,6.44,0,0,1,438.4,834.86Z"/><path class="cls-47" d="M690.37,685.32h-1.25a6.53,6.53,0,0,0-2-1.74l-18-10.4a11.66,11.66,0,0,0-11.65,0l-18,10.4a6.36,6.36,0,0,0-2.36,2.36h-.84v2.94a4.86,4.86,0,0,0,0,.54v.17h0a6.36,6.36,0,0,0,3.19,5.13l17.15,9.9a13.34,13.34,0,0,0,13.36,0l17.15-9.9a6.36,6.36,0,0,0,3.21-5.71h0Z"/><path class="cls-9" d="M687.15,691.24,670,701.14a13.34,13.34,0,0,1-13.36,0l-17.15-9.9a6.44,6.44,0,0,1,0-11.15l18-10.39a11.61,11.61,0,0,1,11.65,0l18,10.39A6.44,6.44,0,0,1,687.15,691.24Z"/><path class="cls-48" d="M638.85,715.22l-1.26,0a6.36,6.36,0,0,0-2-1.74l-18-10.4a11.66,11.66,0,0,0-11.65,0L443.68,796.94a6.41,6.41,0,0,0-2.36,2.35h-.84v2.94a4.86,4.86,0,0,0,0,.54V803h0a6.34,6.34,0,0,0,3.19,5.13L460.83,818a13.41,13.41,0,0,0,13.37,0l161.43-93.34a6.39,6.39,0,0,0,3.21-5.71h0Z"/><path class="cls-9" d="M635.63,721.15,474.2,814.49a13.41,13.41,0,0,1-13.37,0l-17.15-9.9a6.44,6.44,0,0,1,0-11.15L606,699.6a11.66,11.66,0,0,1,11.65,0l18,10.4A6.44,6.44,0,0,1,635.63,721.15Z"/><path class="cls-49" d="M741.63,655.62h-1.25a6.53,6.53,0,0,0-2-1.74l-18-10.4a11.66,11.66,0,0,0-11.65,0l-18,10.4a6.36,6.36,0,0,0-2.36,2.36h-.84v2.94a4.86,4.86,0,0,0,0,.54v.17h0a6.34,6.34,0,0,0,3.19,5.13l17.15,9.9a13.34,13.34,0,0,0,13.36,0l17.15-9.9a6.36,6.36,0,0,0,3.21-5.71h0Z"/><path class="cls-9" d="M738.41,661.54l-17.15,9.9a13.34,13.34,0,0,1-13.36,0l-17.15-9.9a6.44,6.44,0,0,1,0-11.15l18-10.39a11.61,11.61,0,0,1,11.65,0l18,10.39A6.44,6.44,0,0,1,738.41,661.54Z"/><path class="cls-50" d="M791.63,626.73h-1.25a6.63,6.63,0,0,0-2-1.74l-18-10.39a11.66,11.66,0,0,0-11.65,0l-18,10.39a6.51,6.51,0,0,0-2.36,2.36h-.84v2.94a4.86,4.86,0,0,0,0,.54V631h0a6.34,6.34,0,0,0,3.19,5.13l17.15,9.9a13.36,13.36,0,0,0,13.37,0l17.15-9.9a6.37,6.37,0,0,0,3.21-5.7h0Z"/><path class="cls-9" d="M788.42,632.65l-17.15,9.91a13.41,13.41,0,0,1-13.37,0l-17.15-9.91a6.43,6.43,0,0,1,0-11.14l18-10.4a11.66,11.66,0,0,1,11.65,0l18,10.4A6.43,6.43,0,0,1,788.42,632.65Z"/><path class="cls-51" d="M426.66,273.31l-27.25-15.73-8.62-4.94,0,0-.32-.18h0c-4.89-2.69-12.39-1.45-20.36,4.33l-3.85,2.79C360.06,264,353.78,266,348.87,265l-22.07-4.57c-8.13-1.68-19.54,4.81-27.78,15.81l-24.4,32.57c-5.1,6.81-11.6,12.09-17.89,14.56h0c-14,5.48-26.9,23.67-26.9,37.9v27c0,41.14,15,71.84,41.45,87.1h0l31.17,17.68-6.06-8.68c10.74.95,25-7.74,35.24-21.77h0c40.77-55.68,64.56-118.46,64.56-170.37v-.93Z"/><path class="cls-52" d="M367.78,483.45h0c-10.91,14.91-26.31,23.8-37.22,21.49h0C289.79,496.34,266,461,266,409.12v-27c0-14.23,12.91-32.42,26.9-37.91h0c6.29-2.46,12.78-7.75,17.88-14.56l24.41-32.57c8.24-11,19.65-17.49,27.78-15.8L385,285.83c4.91,1,11.19-.94,17.37-5.42l3.85-2.8c13.74-10,26.08-6.43,26.08,7.46v28C432.34,365,408.55,427.78,367.78,483.45Z"/></g></g></g></svg>