<svg xmlns="http://www.w3.org/2000/svg" xmlns:xlink="http://www.w3.org/1999/xlink" viewBox="0 0 519.52 860.77"><defs><style>.cls-1{fill:url(#linear-gradient);}.cls-2{fill:url(#linear-gradient-2);}.cls-3{fill:#423434;}.cls-4{fill:url(#åçûìßííûé_ãðàäèåíò_8);}.cls-5{fill:url(#linear-gradient-3);}.cls-6{fill:url(#linear-gradient-4);}.cls-7{fill:url(#linear-gradient-5);}</style><linearGradient id="linear-gradient" y1="653.73" x2="148.75" y2="653.73" gradientUnits="userSpaceOnUse"><stop offset="0" stop-color="#483ca6"/><stop offset="1" stop-color="#59278f"/></linearGradient><linearGradient id="linear-gradient-2" x1="8.34" y1="365.74" x2="501.14" y2="365.74" gradientUnits="userSpaceOnUse"><stop offset="0" stop-color="#6a5ebf"/><stop offset="1" stop-color="#6e3aa5"/></linearGradient><linearGradient id="åçûìßííûé_ãðàäèåíò_8" x1="91.85" y1="566.85" x2="519.52" y2="566.85" gradientUnits="userSpaceOnUse"><stop offset="0" stop-color="#ffab2e"/><stop offset="1" stop-color="#ffe200"/></linearGradient><linearGradient id="linear-gradient-3" x1="254.24" y1="595.82" x2="388.41" y2="595.82" gradientUnits="userSpaceOnUse"><stop offset="0" stop-color="#1a163d"/><stop offset="1" stop-color="#422363"/></linearGradient><linearGradient id="linear-gradient-4" x1="70.77" y1="226.72" x2="431.57" y2="226.72" xlink:href="#linear-gradient"/><linearGradient id="linear-gradient-5" x1="342.51" y1="69.91" x2="342.51" y2="282.19" gradientUnits="userSpaceOnUse"><stop offset="0" stop-color="#2e256b"/><stop offset="1" stop-color="#5a3087"/></linearGradient></defs><g id="Layer_2" data-name="Layer 2"><g id="Layer_1-2" data-name="Layer 1"><g id="lock"><path class="cls-1" d="M0,494.52V677.58c0,60.78,24,102.13,62.93,120.3l0,0,85.82,49.37,0,0c-35.4-19.5-56.9-59.66-56.9-117.24V531A47.35,47.35,0,0,1,98,507.64L8.34,460.17A74.88,74.88,0,0,0,0,494.52Z"/><path class="cls-2" d="M8.34,460.17,98,507.64A47.28,47.28,0,0,1,115.54,490l371.2-214.08a21.61,21.61,0,0,1,14.4-2.66L423,228.61a36.34,36.34,0,0,0-36.1.07L37.58,429.56A74.8,74.8,0,0,0,8.34,460.17Z"/><path class="cls-3" d="M91.85,531V730c0,57.58,21.5,97.74,56.9,117.24l34.9-53.34q10.38-4,21.09-9.16t21.67-11.47c125-72.2,201.26-217.29,201.26-342.34l-2.83-31.68,84.33-121.47-8-4.58a21.61,21.61,0,0,0-14.4,2.66L115.54,490a47.33,47.33,0,0,0-23.69,41Z"/><path class="cls-4" d="M91.85,531V730c0,57.58,21.5,97.74,56.9,117.24,41.47,22.87,102,17.41,169.51-21.54,125.05-72.2,201.26-217.29,201.26-342.34V294.82a21.86,21.86,0,0,0-18.38-21.61,21.61,21.61,0,0,0-14.4,2.66L115.54,490a47.33,47.33,0,0,0-23.69,41Z"/><path class="cls-5" d="M254.24,596.37c0-37,30-84.43,67.09-105.82s67.08-8.69,67.08,28.36c0,22-10.54,47.52-26.83,69.17v53.66c0,22.23-18,50.66-40.25,63.5h0c-22.24,12.83-40.26,5.21-40.26-17V634.56C264.78,631.72,254.24,618.32,254.24,596.37Z"/><path class="cls-6" d="M70.77,294.44V431.83c0,5.54,3.66,11.07,11,15.29a46.18,46.18,0,0,0,13,4.89,61.71,61.71,0,0,0,12.82,1.43h.21c9.72.07,19.47-2,26.89-6.32s11.14-10,11-15.66c0-.11,0-.22,0-.34V251.2c0-29.13,11.82-62.33,30.91-92.44s45.46-57.16,74.6-74c25.07-14.47,48.08-19,66.19-14.87h0a46.58,46.58,0,0,1,24.79,14.4c9.23,10.35,14.52,25.56,14.52,45.06V266.9c0,5.54,3.65,11.07,11,15.29a46.45,46.45,0,0,0,13.06,4.9,62.2,62.2,0,0,0,12.8,1.42c9.79.1,19.62-2,27.09-6.32s11.13-10,11-15.66h0V120.46c0-38.61-19.65-70.44-47.82-91.66C345.93.32,292.76-9.07,251.18,9.88,184.41,40.31,149.64,79.1,117,130.6S70.77,244.63,70.77,294.44Z"/><path class="cls-7" d="M317.37,69.91a46.58,46.58,0,0,1,24.79,14.4c9.23,10.35,14.52,25.56,14.52,45.06V266.9c0,5.54,3.65,11.07,11,15.29v-160A52.31,52.31,0,0,0,317.37,69.91Z"/></g></g></g></svg>