<svg id="Layer_1" data-name="Layer 1" xmlns="http://www.w3.org/2000/svg" xmlns:xlink="http://www.w3.org/1999/xlink" viewBox="0 0 490.96 490.96"><defs><style>.cls-1{fill:#0e024f;}.cls-2{fill:#e9a100;}.cls-3{fill:#3f21f4;}.cls-4{fill:url(#linear-gradient);}.cls-5{fill:url(#linear-gradient-2);}.cls-6{fill:#000072;}.cls-7{fill:url(#linear-gradient-3);}.cls-8{fill:url(#linear-gradient-4);}.cls-9{fill:#d29204;}</style><linearGradient id="linear-gradient" x1="352.88" y1="241.12" x2="385.34" y2="241.12" gradientUnits="userSpaceOnUse"><stop offset="0" stop-color="#344cd6"/><stop offset="1" stop-color="#346fd6"/></linearGradient><linearGradient id="linear-gradient-2" x1="212.96" y1="74.91" x2="380.54" y2="174.15" gradientUnits="userSpaceOnUse"><stop offset="0.73" stop-color="#3f21f4"/><stop offset="1" stop-color="#3f56f4"/></linearGradient><linearGradient id="linear-gradient-3" x1="309.3" y1="276.54" x2="341.78" y2="276.54" xlink:href="#linear-gradient"/><linearGradient id="linear-gradient-4" x1="169.6" y1="118.36" x2="336.08" y2="222.63" gradientUnits="userSpaceOnUse"><stop offset="0.6" stop-color="#3f21f4"/><stop offset="1" stop-color="#3f56f4"/></linearGradient></defs><circle class="cls-1" cx="245.48" cy="245.48" r="230.81"/><path class="cls-2" d="M476.85,632c-135.36,0-245.48-110.12-245.48-245.48S341.49,141,476.85,141,722.33,251.12,722.33,386.48,612.21,632,476.85,632Zm0-461.61c-119.17,0-216.13,97-216.13,216.13s97,216.13,216.13,216.13S693,505.66,693,386.48,596,170.35,476.85,170.35Z" transform="translate(-231.37 -141)"/><path class="cls-1" d="M329.37,476.55,481,564.05a11.82,11.82,0,0,0,11.79,0l117.67-67.86a12.78,12.78,0,0,0,6.41-11.1l-.12-187.29L454.4,204.13,422,222.85v21l-43.59,24.86v23.8L327,322.44a4.89,4.89,0,0,0-2.43,4.23l0,141.53A9.64,9.64,0,0,0,329.37,476.55Z" transform="translate(-231.37 -141)"/><path class="cls-3" d="M486.86,421.11v139.1a4.18,4.18,0,0,1-6.27,3.62L454.41,548.7l-.57-112.06L422,418V530l-32.45-18.73V399.06L357,380.1V492.51l-21.81-12.58-5.85-3.38a9.63,9.63,0,0,1-4.83-8.35l0-135.86a4.9,4.9,0,0,1,7.35-4.23l3.3,1.91L357,342.63l97.37,56.21,29.38,17A6.14,6.14,0,0,1,486.86,421.11Z" transform="translate(-231.37 -141)"/><polygon class="cls-4" points="352.88 325.44 385.34 306.69 385.34 156.81 352.89 175.54 352.88 325.44"/><polygon class="cls-5" points="385.34 156.8 352.89 175.54 223.04 100.6 201.22 87.99 190.58 81.85 223.03 63.13 233.85 69.37 385.34 156.8"/><polygon class="cls-3" points="298.21 251.68 266.19 270.42 136.38 195.51 114.56 182.91 103.86 176.73 135.9 158.01 146.98 164.41 168.8 177 298.21 251.68"/><polygon class="cls-6" points="125.64 351.49 158.12 332.74 158.12 258.05 125.64 239.08 125.64 351.49"/><polygon class="cls-6" points="190.57 388.96 223.03 370.22 222.45 295.63 190.57 277.01 190.57 388.96"/><polygon class="cls-7" points="309.3 350.42 341.78 331.67 341.78 202.67 309.32 221.4 309.3 350.42"/><polygon class="cls-8" points="341.78 202.67 309.32 221.39 176.27 144.63 157.68 133.9 146.99 127.73 146.98 127.72 179.44 109.02 190.3 115.27 208.55 125.77 341.78 202.67"/><path class="cls-9" d="M530,392.68V505.1l87.12-50.25-.24,30.32a12.79,12.79,0,0,1-6.4,11l-108.8,62.75a2.77,2.77,0,0,1-4.16-2.4l0-145.09Z" transform="translate(-231.37 -141)"/></svg>