<svg xmlns="http://www.w3.org/2000/svg" xmlns:xlink="http://www.w3.org/1999/xlink" viewBox="0 0 1432.51 827.06"><defs><style>.cls-1{fill:url(#åçûìßííûé_ãðàäèåíò_59);}.cls-2{fill:url(#linear-gradient);}.cls-3{fill:url(#linear-gradient-2);}.cls-4{fill:url(#linear-gradient-3);}.cls-5{fill:url(#linear-gradient-4);}.cls-6{fill:url(#linear-gradient-5);}.cls-7{fill:url(#linear-gradient-6);}.cls-8{fill:url(#linear-gradient-7);}.cls-9{fill:url(#linear-gradient-8);}.cls-10{fill:url(#linear-gradient-9);}.cls-11{fill:url(#linear-gradient-10);}.cls-12{fill:url(#linear-gradient-11);}.cls-13{fill:url(#linear-gradient-12);}.cls-14{fill:url(#linear-gradient-13);}.cls-15{fill:url(#linear-gradient-14);}.cls-16{fill:url(#linear-gradient-15);}.cls-17{fill:url(#linear-gradient-16);}.cls-18{fill:url(#linear-gradient-17);}.cls-19{fill:url(#linear-gradient-18);}.cls-20{fill:url(#linear-gradient-19);}.cls-21{fill:url(#linear-gradient-20);}.cls-22{fill:url(#linear-gradient-21);}.cls-23{fill:url(#linear-gradient-22);}.cls-24{fill:url(#linear-gradient-23);}.cls-25{fill:#00cbfc;}.cls-26{fill:#fff;}.cls-27{fill:url(#åçûìßííûé_ãðàäèåíò_45);}.cls-28{fill:#223954;}.cls-29{fill:#ff4c5e;}.cls-30{fill:url(#linear-gradient-24);}</style><linearGradient id="åçûìßííûé_ãðàäèåíò_59" y1="413.53" x2="1432.51" y2="413.53" gradientUnits="userSpaceOnUse"><stop offset="0" stop-color="#fff"/><stop offset="1" stop-color="#bbe2ff"/></linearGradient><linearGradient id="linear-gradient" x1="108.63" y1="357.03" x2="189.54" y2="357.03" gradientUnits="userSpaceOnUse"><stop offset="0" stop-color="#1a163d"/><stop offset="1" stop-color="#422363"/></linearGradient><linearGradient id="linear-gradient-2" x1="184.5" y1="309.81" x2="256.47" y2="309.81" xlink:href="#linear-gradient"/><linearGradient id="linear-gradient-3" x1="262.53" y1="268.18" x2="343.44" y2="268.18" xlink:href="#linear-gradient"/><linearGradient id="linear-gradient-4" x1="333.66" y1="227.11" x2="414.57" y2="227.11" xlink:href="#linear-gradient"/><linearGradient id="linear-gradient-5" x1="409.53" y1="179.89" x2="481.5" y2="179.89" xlink:href="#linear-gradient"/><linearGradient id="linear-gradient-6" x1="487.56" y1="138.25" x2="568.47" y2="138.25" xlink:href="#linear-gradient"/><linearGradient id="linear-gradient-7" x1="563.43" y1="91.03" x2="635.4" y2="91.03" xlink:href="#linear-gradient"/><linearGradient id="linear-gradient-8" x1="208.51" y1="414.7" x2="289.42" y2="414.7" xlink:href="#linear-gradient"/><linearGradient id="linear-gradient-9" x1="284.38" y1="367.47" x2="356.35" y2="367.47" xlink:href="#linear-gradient"/><linearGradient id="linear-gradient-10" x1="362.41" y1="325.84" x2="443.32" y2="325.84" xlink:href="#linear-gradient"/><linearGradient id="linear-gradient-11" x1="438.28" y1="278.62" x2="510.25" y2="278.62" xlink:href="#linear-gradient"/><linearGradient id="linear-gradient-12" x1="516.31" y1="236.99" x2="597.22" y2="236.99" xlink:href="#linear-gradient"/><linearGradient id="linear-gradient-13" x1="587.45" y1="195.92" x2="668.35" y2="195.92" xlink:href="#linear-gradient"/><linearGradient id="linear-gradient-14" x1="658.58" y1="154.85" x2="739.49" y2="154.85" xlink:href="#linear-gradient"/><linearGradient id="linear-gradient-15" x1="308.4" y1="472.36" x2="389.3" y2="472.36" xlink:href="#linear-gradient"/><linearGradient id="linear-gradient-16" x1="384.27" y1="425.14" x2="456.24" y2="425.14" xlink:href="#linear-gradient"/><linearGradient id="linear-gradient-17" x1="462.3" y1="383.51" x2="543.2" y2="383.51" xlink:href="#linear-gradient"/><linearGradient id="linear-gradient-18" x1="533.43" y1="342.44" x2="614.34" y2="342.44" xlink:href="#linear-gradient"/><linearGradient id="linear-gradient-19" x1="604.57" y1="301.37" x2="685.47" y2="301.37" xlink:href="#linear-gradient"/><linearGradient id="linear-gradient-20" x1="680.43" y1="254.15" x2="752.41" y2="254.15" xlink:href="#linear-gradient"/><linearGradient id="linear-gradient-21" x1="763.2" y1="206.37" x2="835.17" y2="206.37" xlink:href="#linear-gradient"/><linearGradient id="linear-gradient-22" x1="546.35" y1="510.68" x2="1041.06" y2="510.68" gradientUnits="userSpaceOnUse"><stop offset="0" stop-color="#2e256b"/><stop offset="1" stop-color="#5a3087"/></linearGradient><linearGradient id="linear-gradient-23" x1="546.35" y1="418.21" x2="1041.06" y2="418.21" gradientUnits="userSpaceOnUse"><stop offset="0" stop-color="#6a5ebf"/><stop offset="1" stop-color="#6e3aa5"/></linearGradient><linearGradient id="åçûìßííûé_ãðàäèåíò_45" x1="210.64" y1="667.87" x2="633.74" y2="667.87" gradientUnits="userSpaceOnUse"><stop offset="0" stop-color="#b42782"/><stop offset="1" stop-color="#cf63a2"/></linearGradient><linearGradient id="linear-gradient-24" x1="205.97" y1="778.08" x2="251.16" y2="778.08" xlink:href="#linear-gradient-22"/></defs><g id="Layer_2" data-name="Layer 2"><g id="Layer_1-2" data-name="Layer 1"><g id="code"><path class="cls-1" d="M1422,506.79,877.79,821c-14,8.08-36.72,8.08-50.73,0L10.5,349.56c-14-8.09-14-21.2,0-29.29L554.73,6.06c14-8.08,36.71-8.08,50.72,0L1422,477.51C1436,485.59,1436,498.7,1422,506.79Z"/><path class="cls-2" d="M179.47,350l10.07,5.82-39.35,22.72-10.07-5.82,13.76-7.95-25.22-14.56a5.31,5.31,0,0,1-.72,2.78,26.16,26.16,0,0,1-2.17,3.5,25.07,25.07,0,0,1-3.1,3.52,19.74,19.74,0,0,1-3.63,2.78l-10.41-6a11.82,11.82,0,0,0,3.31-3,25.44,25.44,0,0,0,2.65-4.17,22.57,22.57,0,0,0,1.6-3.95,4.56,4.56,0,0,0,.23-2.49l13.28-7.67,37.46,21.63Z"/><path class="cls-3" d="M245.49,295.37a26.2,26.2,0,0,1,8.22,6.93,13.08,13.08,0,0,1,2.76,7.64,12.62,12.62,0,0,1-2.7,7.61,25.75,25.75,0,0,1-8.07,6.82,44.14,44.14,0,0,1-11.85,4.68,55.55,55.55,0,0,1-13.14,1.53A56.6,56.6,0,0,1,207.48,329a45.4,45.4,0,0,1-12-4.74,26.09,26.09,0,0,1-8.22-6.94,13.05,13.05,0,0,1-2.76-7.63,12.82,12.82,0,0,1,2.62-7.61,24.76,24.76,0,0,1,8.06-6.87A43.68,43.68,0,0,1,207,290.57a56.7,56.7,0,0,1,26.46.05A45.28,45.28,0,0,1,245.49,295.37Zm-13.08,7.56a32.78,32.78,0,0,0-7-3,31.91,31.91,0,0,0-7.26-1.34,26.69,26.69,0,0,0-6.86.41,18.73,18.73,0,0,0-5.88,2.14,10.08,10.08,0,0,0-3.81,3.45,5.5,5.5,0,0,0-.7,4,8.75,8.75,0,0,0,2.31,4.19,21.64,21.64,0,0,0,5.25,4,32.78,32.78,0,0,0,14.16,4.31,26.67,26.67,0,0,0,6.86-.4,19.2,19.2,0,0,0,6-2.2,9.83,9.83,0,0,0,3.71-3.4,5.48,5.48,0,0,0,.7-4,8.78,8.78,0,0,0-2.27-4.16A20.91,20.91,0,0,0,232.41,302.93Z"/><path class="cls-4" d="M333.36,261.17,343.44,267,304.09,289.7,294,283.89l13.76-7.95-25.22-14.56a5.28,5.28,0,0,1-.72,2.77,26.22,26.22,0,0,1-5.27,7,19,19,0,0,1-3.64,2.77l-10.4-6a11.77,11.77,0,0,0,3.31-3,25.52,25.52,0,0,0,2.65-4.18,22.82,22.82,0,0,0,1.6-3.94,4.6,4.6,0,0,0,.23-2.5l13.28-7.66,37.46,21.63Z"/><path class="cls-5" d="M404.5,220.1l10.07,5.81-39.35,22.72-10.07-5.81,13.76-7.95-25.22-14.56a5.09,5.09,0,0,1-.72,2.77,26.51,26.51,0,0,1-2.16,3.51,25.16,25.16,0,0,1-3.11,3.52,18.62,18.62,0,0,1-3.63,2.77l-10.41-6a11.7,11.7,0,0,0,3.31-3,25.19,25.19,0,0,0,2.65-4.17,22.89,22.89,0,0,0,1.6-3.95,4.73,4.73,0,0,0,.24-2.5l13.27-7.66,37.46,21.63Z"/><path class="cls-6" d="M470.53,165.45a26.07,26.07,0,0,1,8.22,6.93A13,13,0,0,1,481.5,180a12.63,12.63,0,0,1-2.7,7.62,25.84,25.84,0,0,1-8.06,6.82,44.54,44.54,0,0,1-11.86,4.68,55.43,55.43,0,0,1-13.14,1.53,56.52,56.52,0,0,1-13.22-1.59,44.81,44.81,0,0,1-12-4.75,25.88,25.88,0,0,1-8.23-6.93,12.14,12.14,0,0,1-.14-15.24,24.85,24.85,0,0,1,8.06-6.87,43.55,43.55,0,0,1,11.86-4.63,56.66,56.66,0,0,1,26.45,0A45.35,45.35,0,0,1,470.53,165.45ZM457.44,173a32.75,32.75,0,0,0-7-3,31.81,31.81,0,0,0-7.26-1.34,26.7,26.7,0,0,0-6.86.4,19.08,19.08,0,0,0-5.88,2.15,10.07,10.07,0,0,0-3.81,3.45,5.58,5.58,0,0,0-.7,4,8.91,8.91,0,0,0,2.32,4.19,21.36,21.36,0,0,0,5.24,4,32.6,32.6,0,0,0,14.17,4.32,27.07,27.07,0,0,0,6.85-.4,19.2,19.2,0,0,0,6-2.2,9.79,9.79,0,0,0,3.72-3.4,5.59,5.59,0,0,0,.7-4,8.8,8.8,0,0,0-2.28-4.16A21.16,21.16,0,0,0,457.44,173Z"/><path class="cls-7" d="M558.4,131.24l10.07,5.82-39.35,22.72L519.05,154,532.81,146l-25.22-14.56a5.09,5.09,0,0,1-.72,2.77,25.49,25.49,0,0,1-2.16,3.51,26.43,26.43,0,0,1-3.11,3.52A19,19,0,0,1,498,144l-10.41-6a11.51,11.51,0,0,0,3.31-3,25.58,25.58,0,0,0,2.66-4.18,23.53,23.53,0,0,0,1.59-3.94,4.73,4.73,0,0,0,.24-2.5l13.27-7.66,37.46,21.62Z"/><path class="cls-8" d="M624.42,76.6a26,26,0,0,1,8.23,6.92,13.09,13.09,0,0,1,2.75,7.64,12.67,12.67,0,0,1-2.7,7.62,25.69,25.69,0,0,1-8.06,6.81,44.63,44.63,0,0,1-11.85,4.69,56.33,56.33,0,0,1-26.37-.07,45,45,0,0,1-12-4.74,26.2,26.2,0,0,1-8.22-6.93,13.08,13.08,0,0,1-2.76-7.64,12.91,12.91,0,0,1,2.62-7.61,24.91,24.91,0,0,1,8.07-6.87A44,44,0,0,1,586,71.79a56.84,56.84,0,0,1,26.45.06A44.81,44.81,0,0,1,624.42,76.6Zm-13.08,7.55a33.3,33.3,0,0,0-7-3,31.78,31.78,0,0,0-7.26-1.33,26.7,26.7,0,0,0-6.86.4,19.07,19.07,0,0,0-5.88,2.14,10.09,10.09,0,0,0-3.81,3.46,5.56,5.56,0,0,0-.7,3.95,8.89,8.89,0,0,0,2.32,4.2,21.6,21.6,0,0,0,5.24,4,32.61,32.61,0,0,0,14.16,4.32,27.11,27.11,0,0,0,6.86-.41,19,19,0,0,0,6-2.2,9.67,9.67,0,0,0,3.71-3.39,5.5,5.5,0,0,0,.7-4,8.8,8.8,0,0,0-2.27-4.17A21.15,21.15,0,0,0,611.34,84.15Z"/><path class="cls-9" d="M279.35,407.69l10.07,5.81-39.35,22.72L240,430.41l13.76-8L228.54,407.9a5.09,5.09,0,0,1-.72,2.77,25.67,25.67,0,0,1-5.27,7,19.34,19.34,0,0,1-3.63,2.77l-10.41-6a11.7,11.7,0,0,0,3.31-3,25.58,25.58,0,0,0,2.66-4.18,23.2,23.2,0,0,0,1.59-3.94,4.7,4.7,0,0,0,.24-2.49l13.27-7.67L267,414.79Z"/><path class="cls-10" d="M345.37,353a25.83,25.83,0,0,1,8.22,6.93,13,13,0,0,1,2.76,7.63,12.63,12.63,0,0,1-2.7,7.62,25.84,25.84,0,0,1-8.06,6.82,45,45,0,0,1-11.85,4.68,55.57,55.57,0,0,1-13.15,1.53,56.67,56.67,0,0,1-13.23-1.59,45.28,45.28,0,0,1-12-4.75,26,26,0,0,1-8.22-6.93,13.08,13.08,0,0,1-2.76-7.64,12.91,12.91,0,0,1,2.61-7.61,25,25,0,0,1,8.08-6.87,43.73,43.73,0,0,1,11.84-4.62,56.7,56.7,0,0,1,26.46.05A44.81,44.81,0,0,1,345.37,353Zm-13.08,7.55a33.3,33.3,0,0,0-7-3,32.34,32.34,0,0,0-7.26-1.33,26.7,26.7,0,0,0-6.86.4,18.83,18.83,0,0,0-5.88,2.15,10,10,0,0,0-3.81,3.45,5.53,5.53,0,0,0-.7,4,9,9,0,0,0,2.31,4.19,21.62,21.62,0,0,0,5.25,4,32.61,32.61,0,0,0,14.16,4.32,26.66,26.66,0,0,0,6.86-.41,19,19,0,0,0,6-2.2,9.74,9.74,0,0,0,3.71-3.39,5.5,5.5,0,0,0,.7-4,8.8,8.8,0,0,0-2.27-4.17A21.15,21.15,0,0,0,332.29,360.59Z"/><path class="cls-11" d="M433.25,318.83l10.07,5.82L404,347.37l-10.07-5.82,13.76-7.94-25.22-14.56a5.2,5.2,0,0,1-.72,2.77,26.43,26.43,0,0,1-2.16,3.5,25.88,25.88,0,0,1-3.11,3.53,19.34,19.34,0,0,1-3.63,2.77l-10.41-6a11.64,11.64,0,0,0,3.31-3,24.86,24.86,0,0,0,2.65-4.18,22.82,22.82,0,0,0,1.6-3.94,4.6,4.6,0,0,0,.23-2.5l13.28-7.66,37.46,21.62Z"/><path class="cls-12" d="M499.27,264.18a26.09,26.09,0,0,1,8.22,6.93,13,13,0,0,1,2.76,7.64,12.67,12.67,0,0,1-2.7,7.62,25.69,25.69,0,0,1-8.06,6.81,44.21,44.21,0,0,1-11.86,4.68,55,55,0,0,1-13.14,1.54,56.15,56.15,0,0,1-13.23-1.6,45.4,45.4,0,0,1-12-4.74,26.2,26.2,0,0,1-8.22-6.93,13.08,13.08,0,0,1-2.76-7.64,12.91,12.91,0,0,1,2.62-7.61A24.86,24.86,0,0,1,449,264a44.27,44.27,0,0,1,11.85-4.63,56.88,56.88,0,0,1,26.46.06A45.13,45.13,0,0,1,499.27,264.18Zm-13.08,7.56a33.3,33.3,0,0,0-7-3,32.36,32.36,0,0,0-7.26-1.34,26.69,26.69,0,0,0-6.86.41,19.07,19.07,0,0,0-5.88,2.14,10.16,10.16,0,0,0-3.81,3.45,5.55,5.55,0,0,0-.7,4,8.86,8.86,0,0,0,2.32,4.19,21.37,21.37,0,0,0,5.24,4,33,33,0,0,0,14.16,4.32,26.66,26.66,0,0,0,6.86-.41,19.2,19.2,0,0,0,6-2.2,10,10,0,0,0,3.72-3.39,5.6,5.6,0,0,0,.7-4,8.87,8.87,0,0,0-2.28-4.17A21,21,0,0,0,486.19,271.74Z"/><path class="cls-13" d="M587.14,230l10.08,5.82-39.35,22.71L547.8,252.7l13.76-7.95-25.22-14.56a5.16,5.16,0,0,1-.72,2.77,26.47,26.47,0,0,1-5.27,7,19.27,19.27,0,0,1-3.63,2.76l-10.41-6a11.82,11.82,0,0,0,3.31-3,25.44,25.44,0,0,0,2.65-4.17,22.89,22.89,0,0,0,1.6-3.95,4.56,4.56,0,0,0,.23-2.49l13.28-7.67,37.46,21.63Z"/><path class="cls-14" d="M658.28,188.91l10.07,5.82L629,217.44l-10.07-5.81,13.76-7.95-25.21-14.56a5.24,5.24,0,0,1-.73,2.78,26,26,0,0,1-2.16,3.5,25.16,25.16,0,0,1-3.11,3.52,19.1,19.1,0,0,1-3.63,2.78l-10.4-6a11.66,11.66,0,0,0,3.3-3,24.85,24.85,0,0,0,2.66-4.17,23.6,23.6,0,0,0,1.59-3.95,4.5,4.5,0,0,0,.24-2.49l13.28-7.67L646,196Z"/><path class="cls-15" d="M729.41,147.84l10.08,5.82-39.35,22.71-10.07-5.81,13.76-7.95-25.22-14.56a5.29,5.29,0,0,1-.72,2.78,26.16,26.16,0,0,1-2.17,3.5,25.13,25.13,0,0,1-3.1,3.53,19.34,19.34,0,0,1-3.63,2.77l-10.41-6a11.93,11.93,0,0,0,3.31-3,25.52,25.52,0,0,0,2.65-4.18,22.89,22.89,0,0,0,1.6-4,4.56,4.56,0,0,0,.23-2.49l13.28-7.67L717.11,155Z"/><path class="cls-16" d="M379.23,465.36l10.07,5.81L350,493.89l-10.08-5.82,13.77-7.94-25.22-14.56a5.21,5.21,0,0,1-.73,2.77,24.55,24.55,0,0,1-2.16,3.51,25.74,25.74,0,0,1-3.11,3.52,19,19,0,0,1-3.63,2.77l-10.4-6a11.61,11.61,0,0,0,3.3-3,25.58,25.58,0,0,0,2.66-4.18A21.94,21.94,0,0,0,316,461a4.53,4.53,0,0,0,.24-2.5l13.28-7.66,37.45,21.62Z"/><path class="cls-17" d="M445.26,410.71a26,26,0,0,1,8.22,6.93,13.05,13.05,0,0,1,2.76,7.63,12.78,12.78,0,0,1-2.7,7.62,25.85,25.85,0,0,1-8.07,6.81,44.63,44.63,0,0,1-11.85,4.69,55.57,55.57,0,0,1-13.15,1.53,56.58,56.58,0,0,1-13.22-1.59,45.15,45.15,0,0,1-12-4.75,26.12,26.12,0,0,1-8.23-6.93,13.13,13.13,0,0,1-2.75-7.64,12.89,12.89,0,0,1,2.61-7.61,24.91,24.91,0,0,1,8.07-6.87,44,44,0,0,1,11.85-4.63,56.84,56.84,0,0,1,26.45.06A44.88,44.88,0,0,1,445.26,410.71Zm-13.09,7.55a33.3,33.3,0,0,0-7-3,32.36,32.36,0,0,0-7.26-1.34,27.06,27.06,0,0,0-6.85.41,18.88,18.88,0,0,0-5.88,2.14,10.09,10.09,0,0,0-3.81,3.46,5.54,5.54,0,0,0-.71,4A8.83,8.83,0,0,0,403,428a21.32,21.32,0,0,0,5.24,4,33.29,33.29,0,0,0,6.95,3,32.88,32.88,0,0,0,7.22,1.31,26.69,26.69,0,0,0,6.86-.41,19,19,0,0,0,6-2.2A9.82,9.82,0,0,0,439,430.4a5.6,5.6,0,0,0,.7-4,8.85,8.85,0,0,0-2.27-4.17A21.22,21.22,0,0,0,432.17,418.26Z"/><path class="cls-18" d="M533.13,376.5l10.07,5.82L503.86,405l-10.08-5.82,13.77-8-25.22-14.56a5.24,5.24,0,0,1-.73,2.78,26,26,0,0,1-2.16,3.5,26.39,26.39,0,0,1-3.1,3.53,19.39,19.39,0,0,1-3.64,2.77l-10.4-6a11.66,11.66,0,0,0,3.3-3,24.85,24.85,0,0,0,2.66-4.17,22.47,22.47,0,0,0,1.59-3.95,4.59,4.59,0,0,0,.24-2.49L483.37,362l37.45,21.63Z"/><path class="cls-19" d="M604.27,335.43l10.07,5.82L575,364l-10.07-5.82,13.76-7.94-25.22-14.56a5.28,5.28,0,0,1-.72,2.77,25.67,25.67,0,0,1-5.27,7,19.67,19.67,0,0,1-3.63,2.77l-10.41-6a11.64,11.64,0,0,0,3.31-3,25.52,25.52,0,0,0,2.65-4.18,22.57,22.57,0,0,0,1.6-3.95,4.56,4.56,0,0,0,.23-2.49l13.28-7.67L592,342.54Z"/><path class="cls-20" d="M675.4,294.36l10.07,5.82L646.12,322.9l-10.07-5.82,13.76-7.94L624.6,294.58a5.21,5.21,0,0,1-.73,2.77,25.8,25.8,0,0,1-2.16,3.5,25.22,25.22,0,0,1-3.11,3.53,19,19,0,0,1-3.63,2.77l-10.4-6a11.76,11.76,0,0,0,3.3-3,24.86,24.86,0,0,0,2.65-4.18,22.57,22.57,0,0,0,1.6-3.95,4.69,4.69,0,0,0,.24-2.49l13.28-7.66,37.45,21.62Z"/><path class="cls-21" d="M741.42,239.71a26.14,26.14,0,0,1,8.23,6.93,13.08,13.08,0,0,1,2.76,7.64,12.64,12.64,0,0,1-2.71,7.61,25.57,25.57,0,0,1-8.06,6.82,44.27,44.27,0,0,1-11.85,4.68,55.07,55.07,0,0,1-13.15,1.54,56.07,56.07,0,0,1-13.22-1.6,44.79,44.79,0,0,1-12-4.74,26.14,26.14,0,0,1-8.23-6.93,12.19,12.19,0,0,1-.14-15.25,25,25,0,0,1,8.06-6.87A44.2,44.2,0,0,1,703,234.91a56.49,56.49,0,0,1,26.45.06A45.13,45.13,0,0,1,741.42,239.71Zm-13.08,7.56a33.3,33.3,0,0,0-7-3,32.38,32.38,0,0,0-7.25-1.34,26.74,26.74,0,0,0-6.87.41,18.92,18.92,0,0,0-5.87,2.14,10.27,10.27,0,0,0-3.82,3.45,5.6,5.6,0,0,0-.7,4,8.86,8.86,0,0,0,2.32,4.19,21.56,21.56,0,0,0,5.24,4,33,33,0,0,0,14.17,4.32,27.14,27.14,0,0,0,6.86-.41,19,19,0,0,0,6-2.2,9.86,9.86,0,0,0,3.72-3.39,5.6,5.6,0,0,0,.7-4,8.93,8.93,0,0,0-2.27-4.17A21.22,21.22,0,0,0,728.34,247.27Z"/><path class="cls-22" d="M824.19,191.93a26.2,26.2,0,0,1,8.22,6.93,13.08,13.08,0,0,1,2.76,7.64,12.62,12.62,0,0,1-2.7,7.61,25.64,25.64,0,0,1-8.07,6.82,44,44,0,0,1-11.85,4.68,55.55,55.55,0,0,1-13.14,1.53,56.67,56.67,0,0,1-13.23-1.59,45,45,0,0,1-12-4.75,26,26,0,0,1-8.22-6.93,13.05,13.05,0,0,1-2.76-7.63,12.88,12.88,0,0,1,2.62-7.61,24.86,24.86,0,0,1,8.06-6.87,43.81,43.81,0,0,1,11.85-4.63,56.7,56.7,0,0,1,26.46.05A45.15,45.15,0,0,1,824.19,191.93Zm-13.08,7.55a32.75,32.75,0,0,0-7-3,31.91,31.91,0,0,0-7.26-1.34,27.12,27.12,0,0,0-6.86.4,19.08,19.08,0,0,0-5.88,2.15,10,10,0,0,0-3.81,3.45,5.48,5.48,0,0,0-.7,4,8.79,8.79,0,0,0,2.31,4.19,21.89,21.89,0,0,0,5.25,4,32.78,32.78,0,0,0,14.16,4.31,27.12,27.12,0,0,0,6.86-.4,19.2,19.2,0,0,0,6-2.2,10,10,0,0,0,3.72-3.4,5.58,5.58,0,0,0,.7-4,8.89,8.89,0,0,0-2.28-4.16A21.16,21.16,0,0,0,811.11,199.48Z"/><path class="cls-23" d="M546.35,510.69h0V418.21h58.86q6.45-4.38,13.59-8.51c96.6-55.77,253.21-55.77,349.81,0q7.15,4.13,13.59,8.51h58.86v96.84h-.13c-1.85,35.08-25.94,69.84-72.32,96.61-96.6,55.78-253.21,55.78-349.81,0-46.38-26.77-70.47-61.53-72.32-96.61h-.13Z"/><ellipse class="cls-24" cx="793.7" cy="418.21" rx="247.35" ry="142.81"/><ellipse class="cls-25" cx="793.7" cy="418.21" rx="213.71" ry="123.39"/><ellipse class="cls-26" cx="716.26" cy="351.18" rx="63.77" ry="19.12"/><path class="cls-27" d="M627.36,551.27a48.59,48.59,0,0,0-16.21-16.21c-6.23-3.6-11.87-4.33-16-2.6a9.84,9.84,0,0,0-2,1.09l-.21.16L210.64,753.89V781.5c4.13,7.74,10.63,15,17.92,19.18,6.57,3.79,12.49,4.4,16.61,2.3l.92-.53L627.36,583v-.22l.4-.19.91-.53c3.17-2,5.07-5.92,5.07-11.33C633.74,564.58,631.3,557.62,627.36,551.27Z"/><path class="cls-28" d="M206,765c0,5.18,1.75,11,4.67,16.46,4.13,7.74,10.63,15,17.92,19.18,6.57,3.79,12.49,4.4,16.61,2.3l.92-.53c3.17-2.06,5.07-5.92,5.07-11.33,0-12.47-10.12-28.43-22.6-35.64-7.29-4.21-13.79-4.49-17.92-1.5C207.72,756.1,206,759.87,206,765Z"/><path class="cls-29" d="M593,533.71,210.64,753.89Z"/><path class="cls-30" d="M206,765c0,5.18,1.75,11,4.67,16.46,4.13,7.74,10.63,15,17.92,19.18,6.57,3.79,12.49,4.4,16.61,2.3l.92-.53c3.17-2.06,5.07-5.92,5.07-11.33,0-12.47-10.12-28.43-22.6-35.64-7.29-4.21-13.79-4.49-17.92-1.5C207.72,756.1,206,759.87,206,765Z"/></g></g></g></svg>