<svg xmlns="http://www.w3.org/2000/svg" xmlns:xlink="http://www.w3.org/1999/xlink" viewBox="0 0 851.11 1212.93"><defs><style>.cls-1{fill:url(#linear-gradient);}.cls-2{fill:url(#linear-gradient-2);}.cls-3{fill:#00cbfc;}.cls-4{fill:#fff;}.cls-5{fill:#ffd0a6;}.cls-6{fill:url(#linear-gradient-3);}.cls-7{fill:#281a10;}.cls-8{fill:url(#linear-gradient-4);}.cls-9{fill:url(#linear-gradient-5);}.cls-10{fill:url(#linear-gradient-6);}.cls-11{fill:#89603e;}.cls-12{fill:url(#linear-gradient-7);}.cls-13{fill:url(#linear-gradient-8);}</style><linearGradient id="linear-gradient" y1="337.7" x2="549.38" y2="337.7" gradientUnits="userSpaceOnUse"><stop offset="0" stop-color="#6a5ebf"/><stop offset="1" stop-color="#6e3aa5"/></linearGradient><linearGradient id="linear-gradient-2" x1="100.95" y1="383.87" x2="565.21" y2="383.87" gradientUnits="userSpaceOnUse"><stop offset="0" stop-color="#2e256b"/><stop offset="1" stop-color="#5a3087"/></linearGradient><linearGradient id="linear-gradient-3" x1="774.33" y1="629.6" x2="851.11" y2="629.6" xlink:href="#linear-gradient"/><linearGradient id="linear-gradient-4" x1="729.87" y1="934.43" x2="826.72" y2="934.43" gradientUnits="userSpaceOnUse"><stop offset="0" stop-color="#1a163d"/><stop offset="1" stop-color="#422363"/></linearGradient><linearGradient id="linear-gradient-5" x1="646.79" y1="968.07" x2="755.48" y2="968.07" xlink:href="#linear-gradient-4"/><linearGradient id="linear-gradient-6" x1="631.37" y1="658.97" x2="831.55" y2="658.97" xlink:href="#linear-gradient-4"/><linearGradient id="linear-gradient-7" x1="709.01" y1="490.17" x2="774.33" y2="490.17" xlink:href="#linear-gradient"/><linearGradient id="linear-gradient-8" x1="443.28" y1="519.7" x2="701.78" y2="519.7" xlink:href="#linear-gradient"/></defs><g id="Layer_2" data-name="Layer 2"><g id="Layer_1-2" data-name="Layer 1"><g id="person"><path class="cls-1" d="M549.38,62.05,473.29,18.14l-24-13.81-.07,0-.88-.51h0c-13.66-7.51-34.59-4-56.84,12.08l-10.75,7.8c-17.24,12.5-34.77,18-48.48,15.13L270.65,26c-22.7-4.7-54.55,13.42-77.54,44.11L125,161.06c-14.23,19-32.35,33.76-49.91,40.64h0C36,217,0,267.78,0,307.49v75.42C0,497.73,41.74,583.41,115.68,626l-.05,0,87,49.37L185.7,651.17c30,2.63,69.7-21.62,98.38-60.78h0C397.86,435,464.26,259.76,464.26,114.87v-2.6Z"/><path class="cls-2" d="M385,648.57h0c-30.47,41.61-73.43,66.41-103.9,60h0C167.35,684.54,101,586,101,441.09V365.67C101,326,137,275.19,176,259.88h0c17.56-6.88,35.67-21.63,49.91-40.63l68.11-90.92c23-30.69,54.85-48.81,77.55-44.11L433.19,97c13.71,2.84,31.24-2.63,48.48-15.13l10.75-7.8c38.35-27.81,72.79-18,72.79,20.81v78.19C565.21,317.94,498.81,493.17,385,648.57Z"/><ellipse class="cls-3" cx="368.33" cy="374.32" rx="163.83" ry="92.69" transform="translate(-152.22 443.68) rotate(-53.05)"/><path class="cls-4" d="M354,452.91a6.38,6.38,0,0,1-3.84-1.28l-54-40.44a6.43,6.43,0,0,1-.22-10.11l151.61-123.7a6.41,6.41,0,0,1,9.57,8.25L359.51,449.77a6.41,6.41,0,0,1-4.27,3A5.83,5.83,0,0,1,354,452.91ZM310.4,405.84l41.72,31.23,75.4-126.8Z"/><path class="cls-5" d="M443.7,443.14l-19.55-16.66a15.13,15.13,0,0,1-3.77-4.85l-1.06-2.13a9.29,9.29,0,0,1,1-9.81l6.36-8.22a1.64,1.64,0,0,1,.64-.5L438,396.3a1.65,1.65,0,0,0,.86-2.15l-13.59-32.1A1.65,1.65,0,0,1,426,360h0a4.29,4.29,0,0,1,5.69,1.61l16.75,28.31a1.48,1.48,0,0,0,.22.29l9.92,10.44a1.64,1.64,0,0,0,2.83-1.19L461,384.79a7.25,7.25,0,0,1,5.09-7.15l.3-.1a1.65,1.65,0,0,1,2.14,1.6l-.17,9.07a24.6,24.6,0,0,0,1.15,7.85l2.73,8.6a10.47,10.47,0,0,1-.82,8.25l-4.44,8a1.67,1.67,0,0,0-.15,1.22l2.47,9.25a1.65,1.65,0,0,1-.93,1.93l-22.89,10.06A1.65,1.65,0,0,1,443.7,443.14Z"/><path class="cls-6" d="M831.55,523l19.14,121.9a34.48,34.48,0,0,1-6.17,25.63l-47.69,65.71-22.5-46.77,35-58-35-108.5Z"/><path class="cls-7" d="M755.45,1192.45a10.44,10.44,0,0,0,0-1.25l-12.71-44.74H702.79l.58,5.26,1.86,16.4a37.54,37.54,0,0,0-32.37,4.72l-3.94,3.16a9,9,0,0,0-3,10,9.19,9.19,0,0,0,6.28,6l54.6,19.13c13.36,6,28.64-3.55,28.72-18V1193S755.47,1192.76,755.45,1192.45Z"/><path class="cls-7" d="M819.05,1129.54v.15c-.08,14.46-15.35,24-28.72,18L737.13,1129a9.05,9.05,0,0,1,3-10l3.94-3.15a37.56,37.56,0,0,1,34-4.17l40.45,14.92a10.37,10.37,0,0,1,.28,1.06A11.92,11.92,0,0,1,819.05,1129.54Z"/><path class="cls-7" d="M826.7,1135.51a8.85,8.85,0,0,0,0-1.26L814,1089.51H774l.58,5.27,1.86,16.4a37.51,37.51,0,0,0-32.37,4.72l-3.94,3.15a9.05,9.05,0,0,0-3,10,9.15,9.15,0,0,0,6.28,6l54.6,19.14c13.36,6,28.64-3.55,28.72-18v-.15S826.72,1135.81,826.7,1135.51Z"/><path class="cls-8" d="M826.72,1101.68v.27l-55.3-1L739.54,955l-9.67-177.24,90-10.83-.16,1.83L804,948.6a532.5,532.5,0,0,1,22.33,137.76Z"/><path class="cls-9" d="M755.48,1155.62v.38l-62-1.09L657.66,991.12,646.79,792.25l101-12.12-.23,2.57L730,984a595.35,595.35,0,0,1,25,154.6Z"/><path class="cls-10" d="M702.25,511.69c-38,6.52-66.11,43.95-66.8,82.49-1.17,65.37-8.77,165.42.36,228.22a19,19,0,0,0,17.45,16.26l32,2.19c47.11,3.23,73.61-24,118-40.11h0a41.6,41.6,0,0,0,27.33-42l-18-112,19-123.77a45.6,45.6,0,0,0-57-44.69Z"/><path class="cls-5" d="M770.23,481.55l-9-21.79,12.92-37.2a56.15,56.15,0,0,0-4.35-63.08h0a56.57,56.57,0,0,0-56.06-20.4l-25.34,5.3a19.22,19.22,0,0,0-14.78,23.28l.06.29a37.68,37.68,0,0,1,.71,13.78l-2.85,21.42h0a46.07,46.07,0,0,0-1.24,23.13l1.83,9a28,28,0,0,0,35.07,18h0l4.62,55.62Z"/><path class="cls-11" d="M674.69,379l17.61,15a64.73,64.73,0,0,1,1,23.3c-1.86,12.35,22,28.58,22,28.58l13.73,17.57a14.17,14.17,0,0,0,12.26,5.39l16.09-1.26A23,23,0,0,0,777.07,453c2.9-7.46,6-16.11,6.54-20.53s4.57-13.68,8.29-21.48a49.28,49.28,0,0,0,3.61-32.71c-1.58-6.56-3.9-13.38-7.23-17.94-8.41-11.49-10.16-23.58-32.3-28.78s-57.47-6.81-66.49-1.67-7.7,8.37-16,21.31S674.69,379,674.69,379Z"/><polygon class="cls-12" points="774.33 480.65 765.44 469.89 710.49 492.22 709.01 510.45 774.33 480.65"/><path class="cls-5" d="M694.27,428.65l5.46-7.93c2.19-3.17,7.48-3.89,10.83-1.46h0a5,5,0,0,1,2.08,5.69l-7.23,21.23-16-6.84Z"/><path class="cls-13" d="M655,608.75,519.29,586.84l-5-.8a21.38,21.38,0,0,1-16.53-13.47l-54.52-130,25.63-12.41L530.3,532.48l128.85-3.92a40.38,40.38,0,0,1,4.49,80.64A42.42,42.42,0,0,1,655,608.75Z"/></g></g></g></svg>